<?xml version="1.0" standalone="no"?>
<!DOCTYPE svg PUBLIC "-//W3C//DTD SVG 1.1//EN" "http://www.w3.org/Graphics/SVG/1.1/DTD/svg11.dtd">
<svg xmlns="http://www.w3.org/2000/svg"><defs><font id="flaticon" horiz-adv-x="512"><font-face units-per-em="512" ascent="448" descent="-64" x-height="240" cap-height="480"/><missing-glyph horiz-adv-x="512"/><glyph unicode="&#xE000;" glyph-name="active5" horiz-adv-x="512" d="M345.588 14.29c-27.337 0 -48.967 18.125 -64.757 33.915L112.204 216.831c-14.098 14.098 -30.645 33.37 -33.485 57.464 c-2.83 23.996 8.123 47.989 33.485 73.351c14.642 14.641 30.913 22.065 48.363 22.065c41.568 0 73.315 -43.105 75.998 -46.855 c14.125 -18.777 8.135 -41.318 2.848 -61.213c-5.639 -21.223 -8.596 -34.731 1.248 -44.575l40.406 -40.404 c4.438 -4.438 9.646 -6.417 16.89 -6.416c8.237 0.001 17.683 2.51 27.684 5.167c10.911 2.899 22.193 5.896 33.314 5.896 c10.796 0 20.182 -2.942 27.901 -8.746c3.562 -2.548 43.267 -31.785 46.626 -70.72c1.676 -19.427 -5.671 -37.474 -21.837 -53.64 C388.825 25.384 367.217 14.29 345.588 14.29zM160.567 344.71c-10.728 0 -20.766 -4.822 -30.686 -14.743 c-19.596 -19.595 -28.21 -36.848 -26.336 -52.745c1.515 -12.842 9.637 -26.016 26.336 -42.715l168.627 -168.626 c18.391 -18.391 32.91 -26.592 47.079 -26.592c14.661 0 30.486 8.698 48.38 26.592c10.836 10.835 15.615 21.874 14.612 33.746 c-2.387 28.266 -35.988 52.405 -36.328 52.645c-0.11 0.079 -0.239 0.173 -0.349 0.255c-3.396 2.58 -7.511 3.782 -12.948 3.782 c-7.856 0 -17.104 -2.457 -26.896 -5.058c-11.111 -2.952 -22.6 -6.004 -34.101 -6.005c0 0 -0.004 0 -0.006 0 c-13.819 0 -25.447 4.622 -34.563 13.739l-40.406 40.403c-20.525 20.526 -13.432 47.223 -7.731 68.673 c5.086 19.14 7.709 31.373 1.276 39.841c-0.092 0.121 -0.181 0.243 -0.269 0.367C216.015 308.616 190.074 344.71 160.567 344.71z"/><glyph unicode="&#xE001;" glyph-name="add13" horiz-adv-x="512" d="M256 344.5c-84.089 0 -152.502 -68.411 -152.502 -152.5S171.911 39.5 256 39.5c84.09 0 152.5 68.411 152.5 152.5 S340.09 344.5 256 344.5zM256 64.5c-70.304 0 -127.502 57.196 -127.502 127.5S185.696 319.5 256 319.5 c70.305 0 127.5 -57.196 127.5 -127.5S326.305 64.5 256 64.5zM329.497 204.5H268.5v60.996c0 6.903 -5.596 12.5 -12.5 12.5c-6.902 0 -12.5 -5.597 -12.5 -12.5V204.5h-60.995 c-6.903 0 -12.5 -5.597 -12.5 -12.5s5.597 -12.5 12.5 -12.5H243.5v-60.996c0 -6.903 5.598 -12.5 12.5 -12.5c6.904 0 12.5 5.597 12.5 12.5 V179.5h60.997c6.903 0 12.5 5.597 12.5 12.5S336.4 204.5 329.497 204.5z"/><glyph unicode="&#xE002;" glyph-name="alarm68" horiz-adv-x="512" d="M439.416 299.125c-18.055 29.852 -56.173 40.254 -86.716 24.439C325.661 343.65 292.195 355.55 256 355.55 s-69.661 -11.9 -96.7 -31.986c-30.542 15.815 -68.661 5.413 -86.716 -24.439c-18.695 -30.911 -8.938 -71.196 21.695 -90.178 c-0.51 -5.232 -0.779 -10.534 -0.779 -15.897c0 -46.827 19.917 -89.082 51.715 -118.764l-24.497 -24.497c-4.882 -4.882 -4.881 -12.796 0 -17.678 c2.441 -2.441 5.64 -3.661 8.839 -3.661s6.398 1.221 8.839 3.661l26.467 26.468c26.008 -17.683 57.386 -28.029 91.137 -28.029 s65.129 10.347 91.137 28.029l26.467 -26.468c2.44 -2.44 5.64 -3.661 8.839 -3.661s6.398 1.22 8.839 3.661 c4.881 4.881 4.882 12.796 0 17.678l-24.497 24.497c31.798 29.682 51.715 71.937 51.715 118.764c0 5.364 -0.269 10.666 -0.779 15.897 C448.354 227.929 458.111 268.214 439.416 299.125zM93.976 286.187c9.378 15.505 27.475 22.559 44.244 18.704 c-18.036 -18.984 -31.538 -42.312 -38.768 -68.229C86.959 249.705 84.193 270.012 93.976 286.187zM256 55.55 c-75.818 0 -137.5 61.682 -137.5 137.5s61.682 137.5 137.5 137.5s137.5 -61.682 137.5 -137.5S331.818 55.55 256 55.55zM412.548 236.662c-7.229 25.917 -20.731 49.245 -38.768 68.229c16.769 3.854 34.866 -3.199 44.244 -18.704 C427.807 270.012 425.041 249.705 412.548 236.662zM268.54 196.649V296.851c0 6.903 -5.596 12.5 -12.5 12.5c-6.903 0 -12.5 -5.597 -12.5 -12.5v-112.702 c0 -6.903 5.597 -12.5 12.5 -12.5h92.433c6.903 0 12.5 5.597 12.5 12.5c0 6.904 -5.597 12.5 -12.5 12.5H268.54z"/><glyph unicode="&#xE003;" glyph-name="bag45" horiz-adv-x="512" d="M416.005 8.531L396.411 307.29c-0.431 6.572 -5.887 11.682 -12.473 11.682h-54.69v8.041c0 34.462 -28.038 62.5 -62.5 62.5 h-21.494c-34.462 0 -62.5 -28.038 -62.5 -62.5v-8.041h-54.69c-6.586 0 -12.042 -5.11 -12.473 -11.682L95.948 7.805 c-0.227 -3.45 0.986 -6.839 3.35 -9.363s5.666 -3.955 9.124 -3.955h295.158c0.007 0 0.013 0 0.02 0c6.903 0 12.5 5.597 12.5 12.5 C416.099 7.51 416.067 8.025 416.005 8.531zM207.753 327.013c0 20.678 16.822 37.5 37.5 37.5h21.494 c20.678 0 37.5 -16.822 37.5 -37.5v-8.041h-96.494V327.013zM121.768 19.487l18.002 274.484h42.983v-11.154 c-8.895 -4.56 -15 -13.818 -15 -24.482c0 -15.164 12.336 -27.5 27.5 -27.5s27.5 12.336 27.5 27.5c0 10.664 -6.105 19.922 -15 24.482v11.154 h96.494v-11.154c-8.895 -4.56 -15 -13.818 -15 -24.482c0 -15.164 12.336 -27.5 27.5 -27.5s27.5 12.336 27.5 27.5 c0 10.664 -6.105 19.922 -15 24.482v11.154h42.983l18.002 -274.484H121.768z"/><glyph unicode="&#xE004;" glyph-name="balance6" horiz-adv-x="512" d="M178.984 209.848H68.135c-6.903 0 -12.5 -5.597 -12.5 -12.5c0 -37.454 30.471 -67.925 67.925 -67.925s67.925 30.471 67.925 67.925 C191.484 204.251 185.888 209.848 178.984 209.848zM123.56 154.423c-19.323 0 -35.705 12.833 -41.069 30.425h82.138 C159.265 167.256 142.883 154.423 123.56 154.423zM443.865 209.848h-110.85c-6.903 0 -12.5 -5.597 -12.5 -12.5c0 -37.454 30.471 -67.925 67.925 -67.925 s67.925 30.471 67.925 67.925C456.365 204.251 450.769 209.848 443.865 209.848zM388.44 154.423 c-19.323 0 -35.705 12.833 -41.069 30.425h82.138C424.146 167.256 407.764 154.423 388.44 154.423zM297.248 55.612H268.5V300.316c11.115 1.328 23.868 4.048 37.157 6.889c15.352 3.281 31.226 6.674 44.558 7.855 c16.866 1.494 22.351 -1.309 23.926 -2.583c0.426 -0.345 1.307 -1.063 1.642 -3.427l-23.747 -79.113 c-1.985 -6.612 1.767 -13.581 8.378 -15.566c6.612 -1.982 13.582 1.767 15.566 8.379l12.437 41.432l12.437 -41.432 c1.625 -5.414 6.591 -8.909 11.967 -8.909c1.19 0 2.4 0.171 3.599 0.53c6.612 1.985 10.363 8.954 8.378 15.566l-23.991 79.927 c-0.803 11.458 -6.282 18.28 -10.943 22.051c-18.437 14.912 -52.921 7.542 -89.432 -0.263c-11.521 -2.463 -22.607 -4.828 -31.932 -6.135 v15.37c0 6.903 -5.597 12.5 -12.5 12.5s-12.5 -5.597 -12.5 -12.5v-15.37c-9.324 1.307 -20.41 3.672 -31.932 6.135 c-36.51 7.805 -70.996 15.173 -89.432 0.263c-4.661 -3.771 -10.14 -10.593 -10.943 -22.051l-23.991 -79.927 c-1.985 -6.612 1.767 -13.581 8.378 -15.566c6.612 -1.982 13.581 1.767 15.566 8.379l12.437 41.432l12.437 -41.432 c1.625 -5.414 6.591 -8.909 11.967 -8.909c1.19 0 2.4 0.171 3.599 0.53c6.612 1.985 10.363 8.954 8.378 15.566l-23.747 79.113 c0.334 2.363 1.216 3.082 1.642 3.427c1.576 1.274 7.061 4.077 23.926 2.583c13.332 -1.182 29.207 -4.574 44.558 -7.855 c13.289 -2.841 26.042 -5.561 37.157 -6.889v-244.704h-28.748c-6.904 0 -12.5 -5.597 -12.5 -12.5s5.596 -12.5 12.5 -12.5h82.496 c6.904 0 12.5 5.597 12.5 12.5S304.152 55.612 297.248 55.612z"/><glyph unicode="&#xE005;" glyph-name="basket30" horiz-adv-x="512" d="M390.517 260.412h-19.373c-0.475 22.646 -3.228 42.759 -17.149 59.082c-12.265 14.381 -31.558 23.295 -59.505 27.249 c-3.753 6.281 -10.886 10.535 -19.057 10.535h-38.865c-8.17 0 -15.304 -4.254 -19.057 -10.535c-27.947 -3.954 -47.24 -12.868 -59.505 -27.249 c-13.921 -16.323 -16.674 -36.436 -17.149 -59.082h-19.373c-26.191 0 -47.5 -21.309 -47.5 -47.5c0 -22.229 15.348 -40.94 36.003 -46.094v-77.597 c0 -34.463 28.037 -62.5 62.5 -62.5h167.026c34.463 0 62.5 28.037 62.5 62.5v77.597c20.655 5.153 36.003 23.865 36.003 46.094 C438.017 239.104 416.708 260.412 390.517 260.412zM177.027 303.271c8.145 9.55 22.702 15.759 44.12 18.758 c3.957 -3.719 9.408 -6.021 15.42 -6.021h38.865c6.012 0 11.463 2.302 15.42 6.021c21.418 -2.999 35.976 -9.208 44.12 -18.758 c8.833 -10.355 10.774 -24.979 11.164 -42.859H165.863C166.253 278.292 168.195 292.916 177.027 303.271zM390.517 190.412h-1.206 c-3.504 0 -6.717 -1.471 -9.085 -4.054s-3.238 -6.093 -3.238 -9.531l0.026 -87.605c0 -20.678 -16.822 -37.5 -37.5 -37.5H172.487 c-20.678 0 -37.5 16.822 -37.5 37.5l-0.006 87.605c0 3.657 -0.871 6.948 -3.238 9.531s-5.549 4.054 -9.053 4.054h-1.206 c-12.407 0 -22.5 10.094 -22.5 22.5s10.093 22.5 22.5 22.5h269.033c12.407 0 22.5 -10.094 22.5 -22.5S402.923 190.412 390.517 190.412zM186 166.852c-6.904 0 -12.5 -5.597 -12.5 -12.5v-54c0 -6.903 5.596 -12.5 12.5 -12.5s12.5 5.597 12.5 12.5v54 C198.5 161.255 192.904 166.852 186 166.852zM256 166.852c-6.904 0 -12.5 -5.597 -12.5 -12.5v-54c0 -6.903 5.596 -12.5 12.5 -12.5s12.5 5.597 12.5 12.5v54 C268.5 161.255 262.904 166.852 256 166.852zM326 166.852c-6.904 0 -12.5 -5.597 -12.5 -12.5v-54c0 -6.903 5.596 -12.5 12.5 -12.5s12.5 5.597 12.5 12.5v54 C338.5 161.255 332.904 166.852 326 166.852z"/><glyph unicode="&#xE006;" glyph-name="battery166" horiz-adv-x="512" d="M436.442 232.998v35.137c0 17.921 -14.579 32.5 -32.5 32.5H88.058c-17.921 0 -32.5 -14.579 -32.5 -32.5v-152.27 c0 -17.921 14.579 -32.5 32.5 -32.5h315.885c17.921 0 32.5 14.579 32.5 32.5v35.137c11.233 1.248 20 10.797 20 22.357v37.281 C456.442 222.201 447.676 231.75 436.442 232.998zM411.442 115.865c0 -4.136 -3.364 -7.5 -7.5 -7.5H88.058c-4.136 0 -7.5 3.364 -7.5 7.5 v152.27c0 4.136 3.364 7.5 7.5 7.5h315.885c4.136 0 7.5 -3.364 7.5 -7.5v-57.494v-37.281V115.865zM141 246.285c-6.903 0 -12.5 -5.597 -12.5 -12.5v-83.57c0 -6.903 5.597 -12.5 12.5 -12.5s12.5 5.597 12.5 12.5v83.57 C153.5 240.688 147.903 246.285 141 246.285zM211 246.285c-6.903 0 -12.5 -5.597 -12.5 -12.5v-83.57c0 -6.903 5.597 -12.5 12.5 -12.5s12.5 5.597 12.5 12.5v83.57 C223.5 240.688 217.903 246.285 211 246.285z"/><glyph unicode="&#xE007;" glyph-name="battery167" horiz-adv-x="512" d="M446.442 232.998v35.137c0 17.921 -14.58 32.5 -32.5 32.5H98.058c-17.92 0 -32.5 -14.579 -32.5 -32.5v-152.27 c0 -17.921 14.58 -32.5 32.5 -32.5h315.885c17.92 0 32.5 14.579 32.5 32.5v35.137c11.234 1.248 20 10.797 20 22.357v37.281 C466.442 222.201 457.676 231.75 446.442 232.998zM421.442 115.865c0 -4.136 -3.364 -7.5 -7.5 -7.5H98.058c-4.136 0 -7.5 3.364 -7.5 7.5 v152.27c0 4.136 3.364 7.5 7.5 7.5h315.885c4.136 0 7.5 -3.364 7.5 -7.5v-57.494v-37.281V115.865zM151 246.285c-6.903 0 -12.5 -5.597 -12.5 -12.5v-83.57c0 -6.903 5.597 -12.5 12.5 -12.5s12.5 5.597 12.5 12.5v83.57 C163.5 240.688 157.903 246.285 151 246.285zM221 246.285c-6.903 0 -12.5 -5.597 -12.5 -12.5v-83.57c0 -6.903 5.597 -12.5 12.5 -12.5s12.5 5.597 12.5 12.5v83.57 C233.5 240.688 227.903 246.285 221 246.285zM291 246.285c-6.903 0 -12.5 -5.597 -12.5 -12.5v-83.57c0 -6.903 5.597 -12.5 12.5 -12.5s12.5 5.597 12.5 12.5v83.57 C303.5 240.688 297.903 246.285 291 246.285zM361 246.285c-6.903 0 -12.5 -5.597 -12.5 -12.5v-83.57c0 -6.903 5.597 -12.5 12.5 -12.5s12.5 5.597 12.5 12.5v83.57 C373.5 240.688 367.903 246.285 361 246.285z"/><glyph unicode="&#xE008;" glyph-name="battery168" horiz-adv-x="512" d="M436.442 232.998v35.137c0 17.921 -14.579 32.5 -32.5 32.5H88.058c-17.921 0 -32.5 -14.579 -32.5 -32.5v-152.27 c0 -17.921 14.579 -32.5 32.5 -32.5h315.885c17.921 0 32.5 14.579 32.5 32.5v35.137c11.233 1.248 20 10.797 20 22.357v37.281 C456.442 222.201 447.676 231.75 436.442 232.998zM411.442 115.865c0 -4.136 -3.364 -7.5 -7.5 -7.5H88.058c-4.136 0 -7.5 3.364 -7.5 7.5 v152.27c0 4.136 3.364 7.5 7.5 7.5h315.885c4.136 0 7.5 -3.364 7.5 -7.5v-57.494v-37.281V115.865z"/><glyph unicode="&#xE009;" glyph-name="battery169" horiz-adv-x="512" d="M373.025 191.778l-118 51.813c-4.016 1.763 -8.663 1.291 -12.246 -1.241c-3.581 -2.535 -5.571 -6.761 -5.244 -11.136l4.706 -62.963 l-95.161 24.196c-6.688 1.7 -13.493 -2.344 -15.194 -9.034s2.343 -13.493 9.034 -15.194l112.002 -28.479 c1.018 -0.259 2.051 -0.386 3.079 -0.386c2.907 0 5.761 1.015 8.036 2.925c3.081 2.586 4.729 6.496 4.43 10.507l-4.451 59.554 l98.959 -43.452c6.324 -2.775 13.695 0.099 16.471 6.42S379.347 189.003 373.025 191.778zM436.442 232.998v35.137c0 17.921 -14.579 32.5 -32.5 32.5H88.058c-17.921 0 -32.5 -14.579 -32.5 -32.5v-152.27 c0 -17.921 14.579 -32.5 32.5 -32.5h315.885c17.921 0 32.5 14.579 32.5 32.5v35.137c11.233 1.248 20 10.797 20 22.357v37.281 C456.442 222.201 447.676 231.75 436.442 232.998zM411.442 115.865c0 -4.136 -3.364 -7.5 -7.5 -7.5H88.058c-4.136 0 -7.5 3.364 -7.5 7.5 v152.27c0 4.136 3.364 7.5 7.5 7.5h315.885c4.136 0 7.5 -3.364 7.5 -7.5v-57.494v-37.281V115.865z"/><glyph unicode="&#xE00A;" glyph-name="bin9" horiz-adv-x="512" d="M363.928 349.712h-75.561c-1.73 4.829 -6.334 8.29 -11.758 8.29h-41.219c-5.424 0 -10.027 -3.461 -11.758 -8.29h-75.561 c-19.063 0 -34.572 -15.509 -34.572 -34.571v-31.448c0 -6.903 5.597 -12.5 12.5 -12.5h23.509v-232.694c0 -6.903 5.597 -12.5 12.5 -12.5h187.982 c6.903 0 12.5 5.597 12.5 12.5V271.192H386c6.903 0 12.5 5.597 12.5 12.5v31.448C398.5 334.203 382.991 349.712 363.928 349.712zM337.491 50.998H174.509V271.192h162.982V50.998zM373.5 296.192h-235v18.948c0 5.277 4.293 9.571 9.572 9.571h215.855 c5.277 0 9.572 -4.294 9.572 -9.571V296.192zM223.243 94.129c6.903 0 12.5 5.597 12.5 12.5V238.364c0 6.903 -5.597 12.5 -12.5 12.5s-12.5 -5.597 -12.5 -12.5v-131.735 C210.743 99.726 216.34 94.129 223.243 94.129zM288.757 94.129c6.903 0 12.5 5.597 12.5 12.5V238.364c0 6.903 -5.597 12.5 -12.5 12.5s-12.5 -5.597 -12.5 -12.5v-131.735 C276.257 99.726 281.854 94.129 288.757 94.129z"/><glyph unicode="&#xE00B;" glyph-name="book244" horiz-adv-x="512" d="M466 309.04h-24.191v1.337c0 5.249 -3.279 9.939 -8.21 11.741c-29.977 10.955 -60.577 16.51 -90.946 16.51 c-28.924 0 -58.052 -5.049 -86.652 -14.992c-28.604 9.942 -57.732 14.992 -86.656 14.992c-30.371 0 -60.969 -5.555 -90.943 -16.51 c-4.93 -1.802 -8.209 -6.491 -8.209 -11.74v-1.337H46c-6.903 0 -12.5 -5.596 -12.5 -12.5v-238.667c0 -6.904 5.597 -12.5 12.5 -12.5h420 c6.902 0 12.5 5.596 12.5 12.5V296.54C478.5 303.443 472.902 309.04 466 309.04zM416.809 301.482v-188.064 c-24.571 7.277 -49.443 10.957 -74.161 10.957c-24.717 0 -49.584 -3.679 -74.147 -10.955V301.483 c24.568 8.063 49.471 12.144 74.152 12.144S392.238 309.545 416.809 301.482zM95.191 301.483 c24.568 8.063 49.471 12.144 74.152 12.144s49.586 -4.082 74.156 -12.145v-188.064c-24.571 7.277 -49.443 10.957 -74.161 10.957 c-24.717 0 -49.584 -3.679 -74.147 -10.955V301.483zM58.5 284.04h11.691v-187.913c0 -4.081 1.992 -7.905 5.337 -10.244 c2.129 -1.488 4.635 -2.256 7.164 -2.256c1.444 0 2.896 0.25 4.289 0.759c27.219 9.946 54.928 14.989 82.357 14.989 c24.678 0 49.584 -4.096 74.161 -12.157v-16.845h-185V284.04zM453.5 70.373h-185v16.846c24.568 8.061 49.471 12.156 74.147 12.156 c27.43 0 55.144 -5.043 82.372 -14.989c3.834 -1.4 8.108 -0.841 11.453 1.498c3.344 2.339 5.336 6.163 5.336 10.244V284.04H453.5 V70.373zM133 242.5h65.332c6.903 0 12.5 5.596 12.5 12.5s-5.597 12.5 -12.5 12.5H133c-6.903 0 -12.5 -5.596 -12.5 -12.5 S126.097 242.5 133 242.5zM210.832 185c0 6.904 -5.597 12.5 -12.5 12.5H133c-6.903 0 -12.5 -5.596 -12.5 -12.5s5.597 -12.5 12.5 -12.5h65.332 C205.235 172.5 210.832 178.096 210.832 185zM313.668 242.5H379c6.902 0 12.5 5.596 12.5 12.5s-5.598 12.5 -12.5 12.5h-65.332c-6.903 0 -12.5 -5.596 -12.5 -12.5 S306.765 242.5 313.668 242.5zM313.668 172.5H379c6.902 0 12.5 5.596 12.5 12.5s-5.598 12.5 -12.5 12.5h-65.332c-6.903 0 -12.5 -5.596 -12.5 -12.5 S306.765 172.5 313.668 172.5z"/><glyph unicode="&#xE00C;" glyph-name="briefcase65" horiz-adv-x="512" d="M410.741 299.579H333.43v13.834c0 16.314 -13.272 29.587 -29.586 29.587h-95.688c-16.313 0 -29.586 -13.272 -29.586 -29.587 v-13.834h-77.312c-15.785 0 -28.627 -12.841 -28.627 -28.625v-201.328c0 -15.784 12.842 -28.626 28.627 -28.626h309.482 c15.785 0 28.627 12.842 28.627 28.626V270.954C439.368 286.737 426.526 299.579 410.741 299.579zM203.57 313.413 c0 2.529 2.058 4.587 4.586 4.587h95.688c2.528 0 4.586 -2.058 4.586 -4.587v-13.834H203.57V313.413zM101.259 274.579h309.482 c2 0 3.627 -1.626 3.627 -3.625v-65.598c-38.738 -14.37 -97.169 -22.858 -158.474 -22.858c-61.17 0 -119.521 8.459 -158.263 22.781v65.675 C97.632 272.953 99.259 274.579 101.259 274.579zM410.741 66H101.259c-2 0 -3.627 1.626 -3.627 3.626V178.793 c35.458 -11.697 82.077 -19.008 132.882 -20.84c-0.003 -0.145 -0.021 -0.285 -0.021 -0.431v-5.513c0 -10.335 8.408 -18.743 18.744 -18.743 h13.527c10.336 0 18.744 8.408 18.744 18.743v5.513c0 0.147 -0.019 0.291 -0.022 0.437c50.837 1.848 97.45 9.18 132.883 20.901 v-109.235C414.368 67.626 412.741 66 410.741 66z"/><glyph unicode="&#xE00D;" glyph-name="bulb19" horiz-adv-x="512" d="M378.67 261.832C378.67 329.471 323.641 384.5 256 384.5s-122.67 -55.029 -122.67 -122.668c0 -46.923 18.832 -71.88 35.447 -93.9 c14.031 -18.595 26.148 -34.653 26.148 -62.873l-0.006 -51.556c0 -29.777 23.928 -54.003 53.706 -54.003h14.748 c29.778 0 53.806 24.226 53.806 54.003l-0.105 51.556c0 28.22 12.117 44.278 26.148 62.873 C359.838 189.951 378.67 214.909 378.67 261.832zM263.374 24.5h-14.748c-12.76 0 -23.614 8.286 -27.484 19.756h69.717 C286.988 32.786 276.134 24.5 263.374 24.5zM292.379 69.256h-72.758v11.952h72.758V69.256zM292.079 106.208H219.92 c-0.327 35.887 -16.013 56.672 -31.187 76.782c-15.636 20.721 -30.403 40.292 -30.403 78.841c0 53.854 43.814 97.668 97.67 97.668 s97.67 -43.814 97.67 -97.668c0 -38.549 -14.768 -58.121 -30.403 -78.841C308.093 162.88 292.407 142.095 292.079 106.208zM238.07 164.128c6.487 2.362 9.83 9.536 7.468 16.023l-27.179 74.628l9.22 14.428l19.927 -18.455 c4.793 -4.438 12.195 -4.438 16.988 0l19.926 18.455l9.221 -14.428l-27.179 -74.628c-2.362 -6.487 0.98 -13.661 7.468 -16.023 c1.412 -0.515 2.855 -0.758 4.276 -0.758c5.104 0 9.898 3.151 11.746 8.226l29.293 80.432c1.332 3.658 0.884 7.728 -1.212 11.009 l-20.6 32.236c-1.994 3.121 -5.27 5.196 -8.943 5.667c-3.668 0.472 -7.365 -0.71 -10.084 -3.228L256 276.96l-22.406 20.751 c-2.719 2.517 -6.419 3.696 -10.084 3.228c-3.674 -0.471 -6.949 -2.547 -8.943 -5.667l-20.6 -32.236c-2.096 -3.281 -2.544 -7.351 -1.212 -11.009 l29.293 -80.432C224.409 165.109 231.586 161.764 238.07 164.128z"/><glyph unicode="&#xE00E;" glyph-name="button14" horiz-adv-x="512" d="M256.001 39.5c-84.091 0 -152.502 68.411 -152.502 152.5s68.411 152.5 152.502 152.5c84.089 0 152.5 -68.411 152.5 -152.5 S340.09 39.5 256.001 39.5zM256.001 319.5c-70.305 0 -127.502 -57.196 -127.502 -127.5s57.197 -127.5 127.502 -127.5 c70.304 0 127.5 57.196 127.5 127.5S326.305 319.5 256.001 319.5zM329.497 179.5H182.505c-6.903 0 -12.5 5.597 -12.5 12.5s5.597 12.5 12.5 12.5h146.992c6.903 0 12.5 -5.597 12.5 -12.5 S336.4 179.5 329.497 179.5z"/><glyph unicode="&#xE00F;" glyph-name="cake30" horiz-adv-x="512" d="M252.479 321.706h7.041c4.324 0 8.341 2.235 10.621 5.909c3.031 4.884 3.358 10.622 3.358 12.861 c0 7.845 -5.273 15.645 -7.54 18.635c-2.363 3.116 -6.049 4.947 -9.96 4.947s-7.597 -1.831 -9.96 -4.947 c-2.267 -2.99 -7.54 -10.79 -7.54 -18.635c0 -2.24 0.327 -7.977 3.358 -12.861C244.138 323.94 248.155 321.706 252.479 321.706zM355.479 321.706h7.041c4.324 0 8.341 2.235 10.621 5.909c3.031 4.884 3.358 10.622 3.358 12.861 c0 7.845 -5.273 15.645 -7.54 18.635c-2.363 3.116 -6.049 4.947 -9.96 4.947s-7.597 -1.831 -9.96 -4.947 c-2.267 -2.99 -7.54 -10.79 -7.54 -18.635c0 -2.24 0.327 -7.977 3.358 -12.861C347.138 323.94 351.155 321.706 355.479 321.706zM149.479 321.706h7.041c4.324 0 8.341 2.235 10.621 5.909c3.031 4.884 3.358 10.622 3.358 12.861 c0 7.845 -5.273 15.645 -7.54 18.635c-2.363 3.116 -6.049 4.947 -9.96 4.947s-7.597 -1.831 -9.96 -4.947 c-2.267 -2.99 -7.54 -10.79 -7.54 -18.635c0 -2.24 0.327 -7.977 3.358 -12.861C141.138 323.94 145.155 321.706 149.479 321.706zM449.5 113.658v96.598c0 34.462 -28.038 62.5 -62.5 62.5h-15.5v29.551c0 6.904 -5.596 12.5 -12.5 12.5s-12.5 -5.596 -12.5 -12.5 v-29.551h-78v29.551c0 6.904 -5.596 12.5 -12.5 12.5s-12.5 -5.596 -12.5 -12.5v-29.551h-78v29.551c0 6.904 -5.596 12.5 -12.5 12.5 s-12.5 -5.596 -12.5 -12.5v-29.551H125c-34.462 0 -62.5 -28.038 -62.5 -62.5v-96.598c-6.195 -0.743 -11 -6.007 -11 -12.402 c0 -6.903 5.597 -12.5 12.5 -12.5h11h168.5v-43.814H197c-6.903 0 -12.5 -5.597 -12.5 -12.5s5.597 -12.5 12.5 -12.5h118 c6.903 0 12.5 5.597 12.5 12.5s-5.597 12.5 -12.5 12.5h-46.5v43.814H437h11c6.903 0 12.5 5.597 12.5 12.5 C460.5 107.651 455.695 112.916 449.5 113.658zM87.5 113.756v96.5c0 20.678 16.822 37.5 37.5 37.5h262 c20.678 0 37.5 -16.822 37.5 -37.5v-96.5H87.5z"/><glyph unicode="&#xE010;" glyph-name="calendar1" horiz-adv-x="512" d="M428.019 382.309H403.5v6.817c0 6.903 -5.596 12.5 -12.5 12.5s-12.5 -5.597 -12.5 -12.5v-6.817h-65v6.817 c0 6.903 -5.596 12.5 -12.5 12.5s-12.5 -5.597 -12.5 -12.5v-6.817h-65v6.817c0 6.903 -5.596 12.5 -12.5 12.5s-12.5 -5.597 -12.5 -12.5v-6.817 h-65v6.817c0 6.903 -5.596 12.5 -12.5 12.5s-12.5 -5.597 -12.5 -12.5v-6.817H83.981c-17.92 0 -32.5 -14.579 -32.5 -32.5v-47.272 c0 -13.495 8.268 -25.091 20.003 -29.998v-257.664c0 -17.921 14.58 -32.5 32.5 -32.5h304.031c17.92 0 32.5 14.579 32.5 32.5V272.538 c11.735 4.907 20.003 16.503 20.003 29.998V349.809C460.519 367.729 445.939 382.309 428.019 382.309zM76.481 349.809 c0 4.136 3.364 7.5 7.5 7.5H108.5v-5.682c0 -6.904 5.596 -12.5 12.5 -12.5s12.5 5.596 12.5 12.5v5.682h65v-5.682 c0 -6.904 5.596 -12.5 12.5 -12.5s12.5 5.596 12.5 12.5v5.682h65v-5.682c0 -6.904 5.596 -12.5 12.5 -12.5s12.5 5.596 12.5 12.5v5.682h65 v-5.682c0 -6.904 5.596 -12.5 12.5 -12.5s12.5 5.596 12.5 12.5v5.682h24.519c4.136 0 7.5 -3.364 7.5 -7.5v-47.272 c0 -4.136 -3.364 -7.5 -7.5 -7.5H83.981c-4.136 0 -7.5 3.364 -7.5 7.5V349.809zM408.016 7.374H103.984c-4.136 0 -7.5 3.364 -7.5 7.5 V270.036h319.031v-255.162C415.516 10.738 412.151 7.374 408.016 7.374zM298.193 201.791c6.904 0 12.5 5.597 12.5 12.5s-5.596 12.5 -12.5 12.5h-84.386c-6.904 0 -12.5 -5.597 -12.5 -12.5v-61.578 c0 -6.903 5.596 -12.5 12.5 -12.5h71.886v-43.422h-71.886c-6.904 0 -12.5 -5.597 -12.5 -12.5s5.596 -12.5 12.5 -12.5h84.386 c6.904 0 12.5 5.597 12.5 12.5v68.422c0 6.903 -5.596 12.5 -12.5 12.5h-71.886v36.578H298.193z"/><glyph unicode="&#xE011;" glyph-name="call56" horiz-adv-x="512" d="M443.5 308.094c0 32.001 -8.288 54.097 -25.338 67.551c-17.097 13.49 -39.671 15.221 -57.428 15.221H151.268 c-17.757 0 -40.332 -1.73 -57.43 -15.222c-17.051 -13.454 -25.339 -35.55 -25.338 -67.55c0 -30.827 15.645 -46.365 28.769 -53.971 c6.401 -3.709 13.323 -6.186 20.142 -7.826c-17.013 -16.604 -27.185 -39.674 -27.185 -64.682v-98.113c0 -49.829 40.538 -90.367 90.367 -90.367 h150.814c49.829 0 90.367 40.538 90.367 90.367v98.113c0 25.008 -10.269 48.08 -27.24 64.67c6.837 1.64 13.779 4.119 20.197 7.838 C427.855 261.729 443.5 277.266 443.5 308.094zM396.774 181.615v-98.113c0 -36.044 -29.323 -65.367 -65.367 -65.367H180.593 c-36.044 0 -65.367 29.323 -65.367 65.367v98.113c0 28.44 18.301 53.009 45.187 62.195c22.883 7.818 34.099 21.988 43.348 37.93 c9.408 16.215 15.752 26.152 27.146 26.152l50.19 0.002c11.395 0 17.001 -10.39 27.146 -26.153 c20.72 -32.195 39.472 -36.807 39.614 -36.844C376.658 237.434 396.774 211.411 396.774 181.615zM402.196 275.754 c-10.554 -6.116 -24.263 -7.4 -33.904 -7.4c-8.743 0 -15.099 1.061 -15.137 1.067c-0.148 0.025 -0.298 0.049 -0.447 0.069 c-8.567 1.171 -14.346 10.148 -22.843 24.796c-9.979 17.201 -22.397 38.608 -48.77 38.608l-50.193 -0.002 c-26.367 0 -38.787 -21.406 -48.767 -38.605c-8.498 -14.648 -14.277 -23.627 -22.846 -24.799c-0.133 -0.019 -0.291 -0.043 -0.423 -0.065 c-0.063 -0.011 -6.416 -1.07 -15.157 -1.07c-33.317 0 -50.21 13.371 -50.21 39.741c-0.001 23.846 5.175 39.521 15.823 47.924 c8.632 6.811 21.567 9.848 41.944 9.848h209.467c37.464 0 57.766 -9.207 57.766 -57.771 C418.5 292.689 413.167 282.111 402.196 275.754zM256 213.15c-45.123 0 -81.834 -36.712 -81.834 -81.836c0 -45.121 36.711 -81.83 81.834 -81.83s81.834 36.709 81.834 81.83 C337.834 176.438 301.123 213.15 256 213.15zM256 74.484c-31.338 0 -56.834 25.494 -56.834 56.83 c0 31.34 25.496 56.836 56.834 56.836s56.834 -25.496 56.834 -56.836C312.834 99.979 287.338 74.484 256 74.484z"/><glyph unicode="&#xE012;" glyph-name="camera104" horiz-adv-x="512" d="M438 315H183.244v21.846c0 6.904 -5.596 12.5 -12.5 12.5h-46.666c-6.904 0 -12.5 -5.596 -12.5 -12.5V315H74 c-6.903 0 -12.5 -5.597 -12.5 -12.5v-221c0 -6.903 5.597 -12.5 12.5 -12.5h364c6.903 0 12.5 5.597 12.5 12.5v221 C450.5 309.403 444.903 315 438 315zM136.578 324.346h21.666V315h-21.666V324.346zM86.5 290h37.578h46.666h94.297 c-38.608 -15.8 -65.88 -53.772 -65.88 -98s27.272 -82.2 65.88 -98H86.5V290zM305 272.84c44.575 0 80.84 -36.265 80.84 -80.84 s-36.265 -80.84 -80.84 -80.84s-80.84 36.265 -80.84 80.84S260.425 272.84 305 272.84zM425.5 94h-80.541 c38.608 15.8 65.88 53.772 65.88 98s-27.272 82.2 -65.88 98H425.5V94zM305 224.406c17.869 0 32.406 -14.538 32.406 -32.406c0 -6.903 5.597 -12.5 12.5 -12.5s12.5 5.597 12.5 12.5 c0 31.654 -25.752 57.406 -57.406 57.406c-6.903 0 -12.5 -5.597 -12.5 -12.5S298.097 224.406 305 224.406z"/><glyph unicode="&#xE013;" glyph-name="camera105" horiz-adv-x="512" d="M422.357 211.249c-2.852 2.374 -6.611 3.359 -10.263 2.687l-43.302 -7.977v27.225c0 6.904 -5.597 12.5 -12.5 12.5h-7.586 c15.98 14.406 26.047 35.254 26.047 58.413c0 43.37 -35.284 78.654 -78.653 78.654c-27.735 0 -52.146 -14.443 -66.153 -36.19 c-14.008 21.747 -38.417 36.19 -66.152 36.19c-43.37 0 -78.654 -35.284 -78.654 -78.654c0 -23.159 10.066 -44.006 26.047 -58.413h-7.586 c-6.903 0 -12.5 -5.596 -12.5 -12.5v-149.449c0 -6.904 5.597 -12.5 12.5 -12.5h97.5l-48.645 -48.645c-4.882 -4.882 -4.882 -12.796 0 -17.678 c4.883 -4.882 12.797 -4.881 17.678 0l59.813 59.814l59.813 -59.814c2.441 -2.441 5.64 -3.661 8.839 -3.661 c3.198 0 6.398 1.221 8.839 3.661c4.882 4.881 4.882 12.796 0 17.678l-48.645 48.645h97.499c6.903 0 12.5 5.596 12.5 12.5v27.225 l43.302 -7.978c0.753 -0.139 1.511 -0.207 2.265 -0.207c2.898 0 5.734 1.009 7.998 2.894c2.853 2.375 4.502 5.895 4.502 9.606v86.369 C426.859 205.354 425.21 208.874 422.357 211.249zM296.101 357.75c29.585 0 53.653 -24.069 53.653 -53.654 c0 -29.584 -24.068 -53.653 -53.653 -53.653s-53.653 24.068 -53.653 53.653C242.447 333.681 266.516 357.75 296.101 357.75zM229.947 261.633c3.801 -5.9 8.354 -11.269 13.547 -15.95h-27.093C221.594 250.364 226.146 255.733 229.947 261.633zM110.141 304.096 c0 29.585 24.069 53.654 53.654 53.654c29.584 0 53.652 -24.069 53.652 -53.654c0 -29.584 -24.068 -53.653 -53.652 -53.653 C134.21 250.443 110.141 274.511 110.141 304.096zM343.793 96.234H116.102V220.683h227.691V96.234zM401.859 130.287 l-33.066 6.092v44.158l33.066 6.092V130.287z"/><glyph unicode="&#xE014;" glyph-name="cancel22" horiz-adv-x="512" d="M256.001 344.5c-84.09 0 -152.502 -68.411 -152.502 -152.5s68.412 -152.5 152.502 -152.5c84.089 0 152.5 68.411 152.5 152.5 S340.09 344.5 256.001 344.5zM256.001 64.5c-70.305 0 -127.502 57.196 -127.502 127.5s57.197 127.5 127.502 127.5 c70.304 0 127.5 -57.196 127.5 -127.5S326.305 64.5 256.001 64.5zM273.679 192.001l43.13 43.129c4.881 4.882 4.881 12.796 0 17.678c-4.881 4.882 -12.796 4.881 -17.678 0l-43.13 -43.13 l-43.131 43.131c-4.882 4.881 -12.796 4.881 -17.678 0c-4.881 -4.882 -4.881 -12.796 0 -17.678l43.13 -43.13l-43.131 -43.131 c-4.881 -4.882 -4.881 -12.796 0 -17.678c2.441 -2.441 5.64 -3.661 8.839 -3.661c3.199 0 6.398 1.221 8.839 3.661L256 174.323 l43.131 -43.131c2.441 -2.44 5.64 -3.661 8.839 -3.661s6.398 1.221 8.839 3.661c4.881 4.882 4.881 12.796 0 17.678L273.679 192.001z"/><glyph unicode="&#xE015;" glyph-name="cart" horiz-adv-x="512" d="M426.001 314.234H161.747l-15.221 35.779c-1.558 3.662 -4.767 6.363 -8.64 7.275L88.864 368.822 c-6.72 1.586 -13.45 -2.584 -15.03 -9.305c-1.582 -6.72 2.584 -13.449 9.305 -15.03l42.86 -10.085l109.723 -257.924 c-3.398 -6.001 -5.35 -12.926 -5.35 -20.301c0 -22.793 18.544 -41.337 41.337 -41.337s41.337 18.543 41.337 41.337 c0 5.725 -1.172 11.181 -3.285 16.144h45.01c-2.113 -4.962 -3.285 -10.418 -3.285 -16.144c0 -22.793 18.545 -41.337 41.339 -41.337 c22.792 0 41.335 18.543 41.335 41.337s-18.543 41.337 -41.335 41.337l-138.801 -0.193l-17.12 40.243h189.098 c6.904 0 12.5 5.597 12.5 12.5v151.67C438.501 308.637 432.905 314.234 426.001 314.234zM392.85 72.501 c9.021 0 16.334 -7.313 16.334 -16.333s-7.313 -16.333 -16.334 -16.333s-16.333 7.313 -16.333 16.333S383.829 72.501 392.85 72.501zM271.771 72.501c9.021 0 16.334 -7.313 16.334 -16.333s-7.313 -16.333 -16.334 -16.333s-16.333 7.313 -16.333 16.333 S262.751 72.501 271.771 72.501zM413.501 238.399h-82.854c-6.903 0 -12.5 -5.597 -12.5 -12.5s5.597 -12.5 12.5 -12.5h82.854v-50.835 H226.269l-53.887 126.67h241.119V238.399z"/><glyph unicode="&#xE016;" glyph-name="caution7" horiz-adv-x="512" d="M435.01 45.312L266.952 350.74c-2.197 3.993 -6.394 6.474 -10.952 6.474s-8.754 -2.481 -10.952 -6.474L76.99 45.312 c-2.131 -3.872 -2.058 -8.582 0.191 -12.387c2.249 -3.805 6.34 -6.139 10.76 -6.139h336.117c4.42 0 8.511 2.334 10.76 6.139 C437.068 36.73 437.141 41.44 435.01 45.312zM109.087 51.786L256 318.785l146.913 -266.999H109.087zM240.335 229.473v-90.351c0 -8.651 7.014 -15.665 15.665 -15.665s15.665 7.014 15.665 15.665v90.351 c0 8.651 -7.014 15.665 -15.665 15.665S240.335 238.124 240.335 229.473zM256 107.194c-9.097 0 -16.5 -7.399 -16.5 -16.5c0 -9.097 7.403 -16.499 16.5 -16.499s16.5 7.402 16.5 16.499 C272.5 99.795 265.097 107.194 256 107.194z"/><glyph unicode="&#xE017;" glyph-name="chain8" horiz-adv-x="512" d="M422.15 347.593l-10.557 10.559c-12.432 12.432 -28.961 19.278 -46.541 19.278c-17.582 0 -34.109 -6.847 -46.541 -19.279 l-76.629 -76.628c-12.432 -12.433 -19.277 -28.961 -19.277 -46.542c0 -3.522 0.287 -6.999 0.826 -10.412 c-3.412 0.539 -6.891 0.826 -10.412 0.826c-17.582 0 -34.111 -6.847 -46.543 -19.278L89.85 129.488 c-25.662 -25.664 -25.662 -67.421 -0.002 -93.082l10.557 -10.558c12.434 -12.433 28.963 -19.278 46.543 -19.278 c17.582 0 34.109 6.847 46.539 19.279l76.629 76.628c15.486 15.485 21.611 36.829 18.408 56.962 c3.428 -0.544 6.918 -0.835 10.455 -0.835h0.006c17.58 0 34.107 6.847 46.537 19.278l76.629 76.63 C447.813 280.176 447.813 321.932 422.15 347.593zM252.438 120.155l-76.629 -76.629c-7.709 -7.71 -17.959 -11.956 -28.861 -11.956 c-10.904 0 -21.154 4.246 -28.863 11.955l-10.557 10.558c-15.916 15.915 -15.916 41.812 0 57.728l76.627 76.629 c7.711 7.709 17.961 11.955 28.865 11.955c10.902 0 21.154 -4.246 28.863 -11.955l10.557 -10.557 C268.354 161.967 268.354 136.07 252.438 120.155zM404.473 272.189l-76.631 -76.629c-7.709 -7.711 -17.955 -11.956 -28.857 -11.956 h-0.004c-10.904 0.001 -21.156 4.246 -28.863 11.954l-10.555 10.558c-7.711 7.71 -11.957 17.961 -11.957 28.864 s4.246 21.154 11.955 28.864l76.629 76.629c7.711 7.71 17.961 11.956 28.863 11.956s21.154 -4.246 28.863 -11.956l10.557 -10.558 C420.389 314.001 420.387 288.105 404.473 272.189zM352.443 306.122l-58.531 -58.531c-4.881 -4.882 -4.881 -12.797 0 -17.678c2.441 -2.441 5.641 -3.661 8.84 -3.661 s6.398 1.22 8.838 3.661l58.531 58.531c4.883 4.881 4.883 12.796 0 17.678C365.24 311.004 357.324 311.004 352.443 306.122zM200.408 154.087l-58.531 -58.531c-4.881 -4.881 -4.881 -12.796 0 -17.678c2.441 -2.44 5.641 -3.661 8.84 -3.661 s6.398 1.221 8.838 3.661l58.531 58.531c4.883 4.882 4.883 12.797 0 17.678C213.205 158.969 205.289 158.969 200.408 154.087z"/><glyph unicode="&#xE018;" glyph-name="chart45" horiz-adv-x="512" d="M226.595 -13.126c-96.893 0 -175.721 78.828 -175.721 175.721s78.828 175.721 175.721 175.721c6.903 0 12.5 -5.597 12.5 -12.5 v-150.721h150.721c6.903 0 12.5 -5.597 12.5 -12.5C402.315 65.702 323.487 -13.126 226.595 -13.126zM214.095 312.802 c-77.28 -6.376 -138.221 -71.31 -138.221 -150.207c0 -83.107 67.613 -150.721 150.721 -150.721c78.897 0 143.831 60.94 150.207 138.221 H226.595c-6.903 0 -12.5 5.597 -12.5 12.5V312.802zM448.626 208.905H285.405c-6.903 0 -12.5 5.597 -12.5 12.5V384.626c0 6.903 5.597 12.5 12.5 12.5 c96.893 0 175.721 -78.828 175.721 -175.721C461.126 214.502 455.529 208.905 448.626 208.905zM297.905 233.905h137.707 c-6.036 73.156 -64.551 131.671 -137.707 137.707V233.905z"/><glyph unicode="&#xE019;" glyph-name="chart46" horiz-adv-x="512" d="M164.873 50.094h-57.746c-6.903 0 -12.5 5.597 -12.5 12.5V201.406c0 6.903 5.597 12.5 12.5 12.5h57.746 c6.903 0 12.5 -5.597 12.5 -12.5v-138.813C177.373 55.69 171.776 50.094 164.873 50.094zM119.627 75.094h32.746V188.906h-32.746 V75.094zM284.873 50.094h-57.746c-6.904 0 -12.5 5.597 -12.5 12.5V321.406c0 6.903 5.596 12.5 12.5 12.5h57.746 c6.903 0 12.5 -5.597 12.5 -12.5v-258.813C297.373 55.69 291.776 50.094 284.873 50.094zM239.627 75.094h32.746V308.906h-32.746 V75.094zM404.873 50.094h-57.746c-6.904 0 -12.5 5.597 -12.5 12.5V285.406c0 6.903 5.596 12.5 12.5 12.5h57.746 c6.903 0 12.5 -5.597 12.5 -12.5v-222.813C417.373 55.69 411.776 50.094 404.873 50.094zM359.627 75.094h32.746V272.906h-32.746 V75.094z"/><glyph unicode="&#xE01A;" glyph-name="chart47" horiz-adv-x="512" d="M431 50.966H109.105l52.362 104.942l54.308 -35.322c3.451 -2.245 7.788 -2.648 11.593 -1.072 c3.806 1.573 6.592 4.921 7.448 8.948l21.218 99.675l59.662 -30.512c5.044 -2.581 11.192 -1.445 14.982 2.767l49.665 55.179 l1.561 -16.711c0.605 -6.479 6.053 -11.339 12.432 -11.339c0.389 0 0.782 0.018 1.177 0.055c6.874 0.642 11.925 6.734 11.284 13.608 l-4.435 47.497c-0.643 6.874 -6.728 11.928 -13.608 11.284l-47.496 -4.433c-6.873 -0.642 -11.926 -6.734 -11.285 -13.607 c0.644 -6.874 6.718 -11.927 13.609 -11.284l18.221 1.701l-43.278 -48.083l-65.629 33.564c-3.462 1.772 -7.553 1.829 -11.063 0.158 c-3.512 -1.671 -6.045 -4.881 -6.855 -8.685l-20.824 -97.831l-50.8 33.04c-2.987 1.943 -6.662 2.519 -10.098 1.583 c-3.438 -0.935 -6.313 -3.292 -7.902 -6.48L93.5 75.683V345.534c0 6.904 -5.597 12.5 -12.5 12.5s-12.5 -5.596 -12.5 -12.5v-307.068 c0 -6.904 5.597 -12.5 12.5 -12.5h350c6.902 0 12.5 5.596 12.5 12.5C443.5 45.369 437.902 50.966 431 50.966z"/><glyph unicode="&#xE01B;" glyph-name="check64" horiz-adv-x="512" d="M256.001 344.5c-84.09 0 -152.502 -68.411 -152.502 -152.5s68.412 -152.5 152.502 -152.5c84.089 0 152.5 68.411 152.5 152.5 S340.09 344.5 256.001 344.5zM256.001 64.5c-70.305 0 -127.502 57.196 -127.502 127.5s57.197 127.5 127.502 127.5 c70.304 0 127.5 -57.196 127.5 -127.5S326.305 64.5 256.001 64.5zM321.972 250.531l-90.546 -90.546l-41.398 41.398c-4.882 4.881 -12.796 4.881 -17.678 0c-4.881 -4.882 -4.881 -12.796 0 -17.678 l50.237 -50.237c2.441 -2.44 5.64 -3.661 8.839 -3.661s6.398 1.221 8.839 3.661l99.385 99.385c4.881 4.882 4.881 12.796 0 17.678 C334.768 255.412 326.854 255.412 321.972 250.531z"/><glyph unicode="&#xE01C;" glyph-name="cloud334" horiz-adv-x="512" d="M366.055 244.332c-16.921 26.564 -46.168 42.779 -78.009 42.779c-4.252 0 -8.498 -0.291 -12.697 -0.869 c-17.288 23.797 -45.246 38.258 -74.926 38.258c-50.474 0 -91.635 -40.64 -92.484 -90.917c-29.947 -15.991 -48.864 -47.139 -48.864 -81.584 c0 -51.004 41.495 -92.499 92.499 -92.499h208.852c51.004 0 92.499 41.495 92.499 92.499 C452.925 201.115 414.449 241.413 366.055 244.332zM360.426 84.5H268.5V192.525l38.661 -38.659c4.882 -4.881 12.797 -4.881 17.678 0 c4.881 4.882 4.881 12.796 0 17.678l-60 59.998c-4.881 4.88 -12.795 4.881 -17.678 0l-60 -60c-4.881 -4.882 -4.881 -12.796 0 -17.678 c2.441 -2.44 5.64 -3.661 8.839 -3.661s6.398 1.221 8.839 3.661l38.661 38.661V84.5h-91.926c-37.219 0 -67.499 30.28 -67.499 67.499 c0 27.28 16.258 51.726 41.419 62.278c4.965 2.083 8.04 7.11 7.629 12.479c-0.132 1.721 -0.198 3.484 -0.198 5.243 c0 37.22 30.279 67.5 67.497 67.5c23.843 0 46.167 -12.795 58.261 -33.392c2.781 -4.736 8.325 -7.104 13.674 -5.831 c5.113 1.217 10.392 1.834 15.688 1.834c25.079 0 47.953 -13.786 59.698 -35.979c2.211 -4.178 6.585 -6.772 11.316 -6.65 c0.456 0.01 0.909 0.02 1.366 0.02c37.219 0 67.499 -30.281 67.499 -67.502C427.925 114.78 397.645 84.5 360.426 84.5z"/><glyph unicode="&#xE01D;" glyph-name="cloudy" horiz-adv-x="512" d="M360.426 59.5H151.574c-51.004 0 -92.499 41.495 -92.499 92.499c0 34.445 18.917 65.593 48.864 81.584 c0.849 50.276 42.01 90.917 92.483 90.917c29.681 0 57.638 -14.46 74.925 -38.258c4.199 0.578 8.445 0.87 12.698 0.87 c31.842 0 61.089 -16.215 78.01 -42.78c48.394 -2.918 86.869 -43.216 86.869 -92.333C452.925 100.995 411.43 59.5 360.426 59.5zM200.423 299.5c-37.218 0 -67.497 -30.28 -67.497 -67.5c0 -1.759 0.066 -3.523 0.198 -5.244c0.409 -5.369 -2.664 -10.397 -7.629 -12.479 c-25.162 -10.553 -41.42 -34.999 -41.42 -62.278c0 -37.219 30.28 -67.499 67.499 -67.499h208.852c37.219 0 67.499 30.28 67.499 67.499 c0 37.221 -30.28 67.502 -67.499 67.502c-0.457 0 -0.91 -0.01 -1.365 -0.02c-4.748 -0.093 -9.105 2.473 -11.317 6.65 c-11.745 22.193 -34.618 35.979 -59.697 35.979c-5.297 0 -10.575 -0.617 -15.688 -1.834c-5.347 -1.27 -10.894 1.093 -13.675 5.831 C246.591 286.705 224.267 299.5 200.423 299.5z"/><glyph unicode="&#xE01E;" glyph-name="cocktail" horiz-adv-x="512" d="M389.839 296.495c3.574 3.575 4.645 8.952 2.709 13.623c-1.934 4.671 -6.492 7.716 -11.548 7.716h-50.286l19.568 22.664 c4.512 5.226 3.933 13.119 -1.292 17.63c-5.225 4.511 -13.117 3.933 -17.63 -1.292l-33.674 -39.002H131 c-5.056 0 -9.614 -3.045 -11.548 -7.716c-1.935 -4.671 -0.865 -10.047 2.709 -13.623L243.5 175.156v-127.322H216 c-6.903 0 -12.5 -5.597 -12.5 -12.5s5.597 -12.5 12.5 -12.5h80c6.903 0 12.5 5.597 12.5 12.5s-5.597 12.5 -12.5 12.5h-27.5V175.156 L389.839 296.495zM350.822 292.833L256 198.011l-94.822 94.822H350.822z"/><glyph unicode="&#xE01F;" glyph-name="coverage1" horiz-adv-x="512" d="M136 98.85c-6.904 0 -12.5 -5.597 -12.5 -12.5v-28.699c0 -6.903 5.596 -12.5 12.5 -12.5c6.903 0 12.5 5.597 12.5 12.5V86.35 C148.5 93.253 142.903 98.85 136 98.85zM196 158.85c-6.903 0 -12.5 -5.597 -12.5 -12.5v-88.699c0 -6.903 5.597 -12.5 12.5 -12.5s12.5 5.597 12.5 12.5V146.35 C208.5 153.253 202.903 158.85 196 158.85zM256 218.85c-6.903 0 -12.5 -5.597 -12.5 -12.5V57.65c0 -6.903 5.597 -12.5 12.5 -12.5s12.5 5.597 12.5 12.5V206.35 C268.5 213.253 262.903 218.85 256 218.85zM316 278.85c-6.903 0 -12.5 -5.597 -12.5 -12.5V57.65c0 -6.903 5.597 -12.5 12.5 -12.5s12.5 5.597 12.5 12.5V266.35 C328.5 273.253 322.903 278.85 316 278.85zM376 338.85c-6.903 0 -12.5 -5.597 -12.5 -12.5V57.65c0 -6.903 5.597 -12.5 12.5 -12.5s12.5 5.597 12.5 12.5V326.35 C388.5 333.253 382.903 338.85 376 338.85z"/><glyph unicode="&#xE020;" glyph-name="cropping4" horiz-adv-x="512" d="M431 95.406h-53.406v200.51l42.91 42.91c4.881 4.882 4.881 12.796 0 17.678c-4.881 4.881 -12.797 4.881 -17.678 0 l-42.91 -42.91h-200.51V367c0 6.903 -5.597 12.5 -12.5 12.5s-12.5 -5.597 -12.5 -12.5v-53.406H81c-6.903 0 -12.5 -5.597 -12.5 -12.5 s5.597 -12.5 12.5 -12.5h53.406v-205.688c0 -6.903 5.597 -12.5 12.5 -12.5h205.688V17c0 -6.903 5.596 -12.5 12.5 -12.5 c6.903 0 12.5 5.597 12.5 12.5v53.406H431c6.902 0 12.5 5.597 12.5 12.5S437.902 95.406 431 95.406zM334.916 288.594 l-175.51 -175.51v175.51H334.916zM177.084 95.406l175.51 175.51v-175.51H177.084z"/><glyph unicode="&#xE021;" glyph-name="cup55" horiz-adv-x="512" d="M357.968 171.556c-6.904 0 -12.5 -5.596 -12.5 -12.5v-41c0 -6.904 5.596 -12.5 12.5 -12.5s12.5 5.596 12.5 12.5v41 C370.468 165.96 364.872 171.556 357.968 171.556zM357.673 219.656h-1c-7.13 0 -14.093 -1.189 -20.673 -3.498c-2.248 2.166 -5.305 3.498 -8.673 3.498h-223 c-6.904 0 -12.5 -5.596 -12.5 -12.5v-107c0 -20.543 9.873 -39.42 26.578 -51.139l8.528 -15.157c2.215 -3.936 6.379 -6.371 10.895 -6.371h156 c4.516 0 8.68 2.436 10.894 6.371l8.534 15.168c5.863 4.136 10.986 9.274 15.118 15.111c8.708 -4.427 18.396 -6.783 28.3 -6.783h1 c34.463 0 62.5 28.038 62.5 62.5v37.3C420.173 191.619 392.136 219.656 357.673 219.656zM395.173 119.856 c0 -20.678 -16.822 -37.5 -37.5 -37.5h-1c-9.01 0 -17.727 3.254 -24.543 9.164c-3.072 2.664 -7.249 3.667 -11.197 2.688 c-3.947 -0.979 -7.171 -3.817 -8.644 -7.609c-2.903 -7.479 -8.266 -13.958 -15.102 -18.244c-1.768 -1.109 -3.23 -2.643 -4.254 -4.461 l-6.416 -11.403h-141.38l-6.416 11.402c-1.024 1.82 -2.488 3.355 -4.258 4.464c-11.043 6.917 -17.636 18.806 -17.636 31.801v94.5 h198.358c0.853 -3.485 3.183 -6.491 6.466 -8.165c4.188 -2.134 9.219 -1.739 13.021 1.023c6.433 4.672 14.04 7.141 22 7.141h1 c20.678 0 37.5 -16.822 37.5 -37.5V119.856zM211.439 256.272c3.909 -10.23 15.889 -20.959 19.401 -23.224c5.804 -3.742 13.512 -2.427 17.396 3.279 c3.885 5.707 2.437 13.462 -3.27 17.348c-2.105 1.469 -7.274 5.945 -9.925 11.118c-0.531 1.281 -1.033 2.919 -1.21 4.814 c-0.575 6.165 2.499 12.656 9.137 19.293c11.494 11.495 13.171 23.046 12.553 30.712c-1.592 19.777 -19.297 33.079 -21.31 34.531 c-5.602 4.038 -13.441 2.79 -17.478 -2.809c-4.037 -5.6 -2.798 -13.392 2.802 -17.43c2.705 -1.997 10.544 -9.29 11.072 -16.358 c0.098 -1.301 0.393 -5.259 -5.316 -10.969c-8.949 -8.949 -13.586 -17.914 -15.491 -26.205c-1.473 -5.096 -1.589 -9.696 -1.191 -13.38 C209.023 263.143 210.049 259.562 211.439 256.272z"/><glyph unicode="&#xE022;" glyph-name="dish7" horiz-adv-x="512" d="M284.499 91.043c40.734 0 79.03 15.863 107.834 44.666c2.344 2.344 3.661 5.523 3.661 8.839s-1.317 6.495 -3.661 8.839 l-53.337 53.337V285.54c0 6.904 -5.596 12.5 -12.5 12.5H247.68l-53.337 53.337c-4.882 4.882 -12.796 4.882 -17.678 0 c-59.459 -59.459 -59.459 -156.208 0 -215.668c14.325 -14.325 31 -25.446 49.154 -33.01v-52.049h-38c-6.903 0 -12.5 -5.597 -12.5 -12.5 s5.597 -12.5 12.5 -12.5h101c6.903 0 12.5 5.597 12.5 12.5s-5.597 12.5 -12.5 12.5h-38v44.103 C261.747 92.302 273.026 91.043 284.499 91.043zM313.996 273.04v-41.316L272.68 273.04H313.996zM185.934 324.431 l179.458 -179.458c-22.749 -18.738 -51.037 -28.93 -80.893 -28.93c-34.057 0 -66.075 13.262 -90.156 37.344 C147.613 200.117 144.812 274.396 185.934 324.431z"/><glyph unicode="&#xE023;" glyph-name="down126" horiz-adv-x="512" d="M344.839 158.923c-4.881 4.881 -12.797 4.881 -17.678 0L268.5 100.262V313.916c0 6.903 -5.597 12.5 -12.5 12.5 c-6.904 0 -12.5 -5.597 -12.5 -12.5v-213.654l-58.661 58.659c-4.883 4.881 -12.797 4.881 -17.678 0c-4.882 -4.882 -4.882 -12.796 0 -17.678 l80 -79.998c2.44 -2.44 5.64 -3.661 8.839 -3.661s6.398 1.221 8.839 3.661l80 80C349.721 146.127 349.721 154.041 344.839 158.923z"/><glyph unicode="&#xE024;" glyph-name="download181" horiz-adv-x="512" d="M247.161 116.807c2.441 -2.44 5.64 -3.661 8.839 -3.661s6.398 1.221 8.839 3.661l80 80c4.881 4.882 4.881 12.796 0 17.678 c-4.882 4.881 -12.796 4.881 -17.678 0L268.5 155.823V369.478c0 6.903 -5.597 12.5 -12.5 12.5c-6.904 0 -12.5 -5.597 -12.5 -12.5v-213.655 l-58.661 58.66c-4.882 4.881 -12.797 4.881 -17.678 0c-4.881 -4.882 -4.881 -12.796 0 -17.678L247.161 116.807zM424.885 138.146H311.497c-6.904 0 -12.5 -5.597 -12.5 -12.5v-23.454c0 -6.903 5.596 -12.5 12.5 -12.5s12.5 5.597 12.5 12.5 v10.954h88.388v-86.123H99.615v86.123h88.388v-10.954c0 -6.903 5.596 -12.5 12.5 -12.5s12.5 5.597 12.5 12.5v23.454 c0 6.903 -5.596 12.5 -12.5 12.5H87.115c-6.904 0 -12.5 -5.597 -12.5 -12.5v-111.123c0 -6.903 5.596 -12.5 12.5 -12.5h337.77 c6.903 0 12.5 5.597 12.5 12.5V125.646C437.385 132.549 431.788 138.146 424.885 138.146z"/><glyph unicode="&#xE025;" glyph-name="download3" horiz-adv-x="512" d="M366.055 244.332c-16.921 26.564 -46.168 42.779 -78.009 42.779c-4.252 0 -8.498 -0.291 -12.697 -0.869 c-17.288 23.797 -45.246 38.258 -74.926 38.258c-50.474 0 -91.635 -40.64 -92.484 -90.917c-29.947 -15.991 -48.864 -47.139 -48.864 -81.584 c0 -51.004 41.495 -92.499 92.499 -92.499h208.852c51.004 0 92.499 41.495 92.499 92.499 C452.925 201.115 414.449 241.413 366.055 244.332zM360.426 84.5H151.574c-37.219 0 -67.499 30.28 -67.499 67.499 c0 27.28 16.258 51.726 41.419 62.278c4.965 2.083 8.04 7.11 7.629 12.479c-0.132 1.721 -0.198 3.484 -0.198 5.243 c0 37.22 30.279 67.5 67.497 67.5c15.896 0 31.113 -5.693 43.077 -15.588v-119.055l-38.661 38.659c-4.882 4.881 -12.797 4.881 -17.678 0 c-4.881 -4.882 -4.881 -12.796 0 -17.678l60 -59.998c2.441 -2.44 5.64 -3.661 8.839 -3.661c3.199 0 6.398 1.221 8.839 3.661l60 60 c4.881 4.882 4.881 12.796 0 17.678c-4.882 4.881 -12.796 4.881 -17.678 0L268.5 164.857v95.121c1.27 -0.098 2.569 -0.008 3.857 0.299 c5.113 1.217 10.392 1.834 15.688 1.834c25.079 0 47.953 -13.786 59.698 -35.979c2.211 -4.178 6.578 -6.772 11.316 -6.65 c0.456 0.01 0.909 0.02 1.366 0.02c37.219 0 67.499 -30.281 67.499 -67.502C427.925 114.78 397.645 84.5 360.426 84.5z"/><glyph unicode="&#xE026;" glyph-name="envelope54" horiz-adv-x="512" d="M427.813 325.994H84.188c-6.903 0 -12.5 -5.597 -12.5 -12.5v-242.988c0 -6.903 5.597 -12.5 12.5 -12.5h343.625 c6.903 0 12.5 5.597 12.5 12.5V313.494C440.313 320.397 434.716 325.994 427.813 325.994zM415.313 83.006H96.688V300.994h318.625 V83.006zM129.443 242.112l120 -73.937c2.01 -1.239 4.283 -1.858 6.557 -1.858s4.547 0.619 6.557 1.858l120 73.937 c5.878 3.621 7.707 11.322 4.086 17.199c-3.621 5.877 -11.324 7.707 -17.199 4.085L256 193.5l-113.443 69.896 c-5.875 3.619 -13.576 1.793 -17.199 -4.085C121.736 253.434 123.565 245.733 129.443 242.112z"/><glyph unicode="&#xE027;" glyph-name="favourite24" horiz-adv-x="512" d="M356.723 24.5c-1.989 0 -3.986 0.475 -5.815 1.436L256 75.832l-94.908 -49.896c-4.212 -2.213 -9.315 -1.845 -13.164 0.952 c-3.85 2.796 -5.777 7.536 -4.973 12.226l18.125 105.682L84.298 219.64c-3.407 3.321 -4.633 8.289 -3.163 12.813 c1.47 4.525 5.382 7.823 10.091 8.508l106.111 15.418l47.454 96.153c2.105 4.267 6.451 6.968 11.209 6.968 c4.758 0 9.104 -2.701 11.209 -6.968l47.454 -96.153l106.11 -15.418c4.709 -0.685 8.621 -3.982 10.091 -8.508 c1.471 -4.524 0.245 -9.492 -3.163 -12.813l-76.783 -74.845l18.126 -105.682c0.804 -4.689 -1.124 -9.43 -4.973 -12.226 C361.894 25.305 359.315 24.5 356.723 24.5zM119.885 219.862l63.352 -61.752c2.946 -2.872 4.291 -7.01 3.594 -11.064 l-14.955 -87.196l78.306 41.169c3.642 1.914 7.993 1.914 11.634 0l78.306 -41.168l-14.956 87.195 c-0.695 4.055 0.649 8.192 3.595 11.064l63.352 61.752l-87.549 12.722c-4.071 0.592 -7.591 3.148 -9.412 6.838L256 318.756 l-39.153 -79.334c-1.82 -3.689 -5.341 -6.246 -9.412 -6.838L119.885 219.862z"/><glyph unicode="&#xE028;" glyph-name="flag86" horiz-adv-x="512" d="M379.816 197.964l-42.104 71.994l42.444 72.574c2.261 3.866 2.281 8.646 0.053 12.53s-6.364 6.28 -10.843 6.28H155.117 c-0.183 6.744 -5.694 12.158 -12.482 12.158c-6.904 0 -12.5 -5.596 -12.5 -12.5v-338c0 -6.904 5.596 -12.5 12.5 -12.5s12.5 5.596 12.5 12.5 V178.573h214.23c0.008 -0.001 0.013 0 0.02 0c6.904 0 12.5 5.596 12.5 12.5C381.885 193.62 381.124 195.988 379.816 197.964zM155.135 203.573v132.77h192.439l-35.134 -60.074c-2.28 -3.898 -2.28 -8.723 0 -12.621l35.134 -60.074H155.135z"/><glyph unicode="&#xE029;" glyph-name="flask16" horiz-adv-x="512" d="M399.564 28.295l-85.316 208.281V360.443c0 6.903 -5.596 12.5 -12.5 12.5h-91.496c-6.904 0 -12.5 -5.597 -12.5 -12.5v-123.867 l-85.316 -208.281c-1.579 -3.855 -1.134 -8.244 1.188 -11.703c2.321 -3.46 6.214 -5.535 10.38 -5.535h263.994 c4.166 0 8.059 2.075 10.38 5.535C400.698 20.051 401.144 24.439 399.564 28.295zM221.819 229.377 c0.616 1.504 0.933 3.113 0.933 4.738V347.943h66.496v-113.828c0 -1.625 0.317 -3.234 0.933 -4.738l15.612 -38.113h-99.586 L221.819 229.377zM142.631 36.057l53.335 130.207h120.066l53.335 -130.207H142.631z"/><glyph unicode="&#xE02A;" glyph-name="folder256" horiz-adv-x="512" d="M460.773 280.979c-2.37 2.629 -5.744 4.13 -9.284 4.13h-2.345c-2.904 26.221 -25.189 46.685 -52.171 46.685H258.5v12.298 c0 6.903 -5.597 12.5 -12.5 12.5H100.511c-28.948 0 -52.5 -23.552 -52.5 -52.5c0 -0.371 0.017 -0.741 0.05 -1.11l20 -224.184 c0.005 -0.063 0.012 -0.126 0.018 -0.188c3.199 -30.625 24.27 -51.201 52.433 -51.201h270.979c27.082 0 47.633 19.862 52.355 50.602 c0.03 0.202 0.057 0.405 0.078 0.608l20 192.701C464.288 274.84 463.144 278.351 460.773 280.979zM423.85 285.109H286 c-13.169 0 -24.199 9.306 -26.875 21.685h137.849C410.142 306.794 421.172 297.488 423.85 285.109zM419.09 81.521 c-1.155 -7.209 -6.427 -29.112 -27.601 -29.112H120.511c-18.068 0 -26.078 14.811 -27.558 28.706L73.016 304.598 c-1.138 14.935 12.5 26.994 27.495 26.994H233.5v-18.982c0 -28.948 23.552 -52.5 52.5 -52.5h151.625L419.09 81.521z"/><glyph unicode="&#xE02B;" glyph-name="garbage13" horiz-adv-x="512" d="M256 269.99c-6.904 0 -12.5 -5.597 -12.5 -12.5v-169.354c0 -6.903 5.596 -12.5 12.5 -12.5c6.903 0 12.5 5.597 12.5 12.5V257.49 C268.5 264.393 262.903 269.99 256 269.99zM375 327.703h-61V353.577c0 6.903 -5.597 12.5 -12.5 12.5h-91c-6.903 0 -12.5 -5.597 -12.5 -12.5v-25.874h-61 c-6.904 0 -12.5 -5.596 -12.5 -12.5s5.596 -12.5 12.5 -12.5h11.255v-272.279c0 -6.903 5.597 -12.5 12.5 -12.5h190.49 c6.903 0 12.5 5.597 12.5 12.5V302.703H375c6.903 0 12.5 5.596 12.5 12.5S381.903 327.703 375 327.703zM223 341.077h66v-13.374h-66 V341.077zM338.745 42.923h-165.49V302.703H210.5h91h37.245V42.923z"/><glyph unicode="&#xE02C;" glyph-name="gift84" horiz-adv-x="512" d="M387.244 285.736h-13.537c4.111 5.801 7.141 12.379 8.875 19.496c3.604 14.794 1.23 30.107 -6.684 43.116 c-10.432 17.149 -28.654 27.388 -48.745 27.388c-10.416 0 -20.646 -2.873 -29.581 -8.308c-15.162 -9.221 -30.998 -38.1 -41.572 -60.589 c-10.574 22.489 -26.41 51.367 -41.572 60.588c-8.936 5.436 -19.165 8.309 -29.581 8.309c-20.091 0 -38.313 -10.239 -48.744 -27.388 c-7.915 -13.009 -10.288 -28.322 -6.685 -43.116c1.734 -7.117 4.763 -13.695 8.875 -19.496h-13.537c-6.903 0 -12.5 -5.597 -12.5 -12.5v-252.473 c0 -6.903 5.597 -12.5 12.5 -12.5h262.488c6.903 0 12.5 5.597 12.5 12.5V273.236C399.744 280.14 394.147 285.736 387.244 285.736zM310.564 346.068c5.02 3.054 10.756 4.668 16.589 4.668c11.29 0 21.528 -5.75 27.386 -15.381c4.443 -7.304 5.776 -15.9 3.753 -24.206 s-7.16 -15.326 -14.466 -19.77c-1.939 -1.18 -9.767 -4.737 -33.912 -5.497c5.711 4.212 10.461 9.126 13.934 14.615 c3.69 5.834 1.952 13.556 -3.883 17.246c-5.831 3.689 -13.555 1.952 -17.246 -3.882c-3.781 -5.978 -11.777 -11.99 -23.092 -15.65 C289.931 319.732 302.243 341.008 310.564 346.068zM157.461 335.356c5.857 9.631 16.096 15.38 27.386 15.38 c5.833 0 11.569 -1.614 16.59 -4.668c8.308 -5.052 20.62 -26.329 30.929 -47.854c-11.311 3.66 -19.305 9.67 -23.084 15.647 c-3.69 5.834 -11.411 7.572 -17.246 3.883c-5.834 -3.69 -7.573 -11.411 -3.883 -17.246c3.472 -5.489 8.223 -10.403 13.934 -14.615 c-24.146 0.761 -31.973 4.317 -33.914 5.498c-7.304 4.442 -12.44 11.463 -14.464 19.769S153.018 328.052 157.461 335.356zM137.256 260.736h74.402h0.007H243.5v-227.473H137.256V260.736zM374.744 33.264H268.5V260.736h31.841h0.003h74.4V33.264z"/><glyph unicode="&#xE02D;" glyph-name="globe32" horiz-adv-x="512" d="M256 389.5C147.098 389.5 58.5 300.902 58.5 192S147.098 -5.5 256 -5.5S453.5 83.098 453.5 192S364.902 389.5 256 389.5zM428.044 204.5h-89.72c-1.199 43.439 -8.627 84.031 -21.228 115.404c-6.881 17.133 -15.077 30.779 -24.215 40.613 C366.387 344.443 422.512 281.371 428.044 204.5zM256 30.205c-12.865 0 -27.032 16.152 -37.898 43.208 c-11.462 28.54 -18.255 65.831 -19.421 106.087h114.639c-1.167 -40.256 -7.959 -77.547 -19.422 -106.087 C283.032 46.357 268.864 30.205 256 30.205zM198.681 204.5c1.166 40.256 7.959 77.547 19.421 106.087 c10.866 27.056 25.034 43.208 37.898 43.208c12.864 0 27.032 -16.152 37.897 -43.208c11.463 -28.54 18.255 -65.831 19.422 -106.087 H198.681zM219.118 360.518c-9.138 -9.834 -17.334 -23.48 -24.215 -40.613c-12.6 -31.374 -20.028 -71.965 -21.227 -115.404h-89.72 C89.488 281.371 145.613 344.443 219.118 360.518zM83.956 179.5h89.72c1.199 -43.439 8.627 -84.031 21.227 -115.404 c6.881 -17.133 15.077 -30.779 24.215 -40.613C145.613 39.557 89.488 102.629 83.956 179.5zM292.882 23.482 c9.138 9.834 17.334 23.48 24.215 40.613c12.601 31.374 20.028 71.965 21.228 115.404h89.72 C422.512 102.629 366.387 39.557 292.882 23.482z"/><glyph unicode="&#xE02E;" glyph-name="graduation1" horiz-adv-x="512" d="M438.409 243.893l-176.65 91.701c-3.611 1.874 -7.907 1.874 -11.519 0l-176.65 -91.701c-4.141 -2.15 -6.74 -6.427 -6.741 -11.093 c0 0 0 0 0 -0.001v-47.864c0 -6.903 5.596 -12.5 12.5 -12.5s12.5 5.597 12.5 12.5v27.291l26.793 -13.909v-99.542 c0 -2.608 0.815 -5.15 2.333 -7.271C122.275 89.687 153.975 47 256 47s133.723 42.687 135.022 44.504 c1.517 2.121 2.332 4.664 2.332 7.271v99.542l45.055 23.388c4.142 2.15 6.741 6.428 6.741 11.094S442.551 241.743 438.409 243.893 zM368.354 103.603C360.053 95.623 329.274 72 256 72c-73.275 0 -104.054 23.623 -112.356 31.603V185.34l106.597 -55.335 c1.806 -0.937 3.782 -1.406 5.759 -1.406s3.954 0.469 5.759 1.406l106.595 55.334V103.603zM256 155.183l-149.519 77.616L256 310.416 l149.519 -77.617L256 155.183zM79.35 161.414c-6.904 0 -12.5 -5.596 -12.5 -12.5v-15.117c0 -6.903 5.596 -12.5 12.5 -12.5s12.5 5.597 12.5 12.5v15.117 C91.85 155.818 86.254 161.414 79.35 161.414z"/><glyph unicode="&#xE02F;" glyph-name="hand223" horiz-adv-x="512" d="M281.547 312c6.622 0 13.267 -2.332 18.607 -7.076l68.855 -61.155c12.036 -12.296 23.427 -33.273 23.427 -51.304v-60.223 c0 -33.269 -24.142 -60.242 -53.93 -60.242l-68.719 0.026c-15.48 0 -28.035 12.557 -28.035 28.033c0 5.087 1.378 9.846 3.748 13.963 c-12.984 2.444 -22.81 13.832 -22.81 27.534c0 5.558 1.637 10.72 4.429 15.079c-10.464 4.072 -17.882 14.218 -17.882 26.109 c0 5.22 1.45 10.082 3.934 14.271h-65.576c-15.486 0 -28.034 12.557 -28.034 28.033c0 15.487 12.548 28.033 28.034 28.033H274.09 l-11.173 9.928c-11.576 10.273 -12.621 27.994 -2.344 39.57C266.114 308.817 273.814 312 281.547 312 M281.547 337 c-15.148 0 -29.605 -6.494 -39.664 -17.816c-9.408 -10.598 -14.125 -24.217 -13.29 -38.354c0.055 -0.921 0.132 -1.838 0.233 -2.748h-81.229 c-29.243 0 -53.034 -23.791 -53.034 -53.033s23.791 -53.033 53.034 -53.033h37.729c1.437 -6.988 4.282 -13.621 8.429 -19.564 c1.305 -1.869 2.718 -3.643 4.232 -5.314c-0.196 -1.847 -0.294 -3.709 -0.294 -5.58c0 -16.174 7.32 -30.912 19.067 -40.725 c-0.004 -0.258 -0.006 -0.515 -0.006 -0.772c0 -29.243 23.792 -53.033 53.035 -53.033L338.498 47c21.622 0 41.781 9.224 56.772 25.971 c14.294 15.97 22.167 37.02 22.167 59.271v60.223c0 12.144 -3.346 25.51 -9.677 38.652c-5.385 11.178 -12.801 21.881 -20.884 30.139 c-0.407 0.416 -0.829 0.818 -1.264 1.205l-68.855 61.154C307.042 332.246 294.537 337 281.547 337L281.547 337z"/><glyph unicode="&#xE030;" glyph-name="hand224" horiz-adv-x="512" d="M428.5 221.237c0 95.117 -77.383 172.5 -172.5 172.5s-172.5 -77.383 -172.5 -172.5c0 -56.08 27.084 -108.31 72.689 -140.699 c0.834 -8.94 4.465 -17.357 10.541 -24.197l38.226 -43.036c0.385 -0.433 0.784 -0.852 1.197 -1.257 c10.26 -10.05 29.396 -21.786 49.559 -21.786h37.635c16.22 0 31.597 5.769 43.3 16.244c12.3 11.01 19.355 26.487 19.355 42.461 l-0.014 31.703C401.469 113.065 428.5 165.282 428.5 221.237zM293.346 15.263h-37.635c-11.272 0 -24.383 7.12 -32.064 14.645 l-38.225 43.034c-6.425 7.235 -5.771 18.309 1.465 24.735c3.338 2.964 7.491 4.422 11.63 4.422c4.833 0 9.644 -1.989 13.105 -5.886 l6.202 -6.981v79.057c0 9.677 7.844 17.522 17.521 17.522s17.521 -7.845 17.521 -17.522v-40.984c2.615 1.552 5.658 2.459 8.919 2.459 c7.436 0 13.775 -4.64 16.318 -11.177c2.723 1.745 5.953 2.769 9.427 2.769c8.56 0 15.676 -6.142 17.206 -14.257 c2.572 1.481 5.545 2.341 8.726 2.341c9.676 0 17.521 -7.845 17.521 -17.521L331 48.968C331 30.352 314.143 15.263 293.346 15.263 zM352.206 109.437c-6.196 13.651 -19.405 23.474 -35.002 24.84c-7.724 7.524 -18.252 12.079 -29.674 12.079 c-0.124 0 -0.247 0 -0.371 -0.001c-0.353 0.262 -0.71 0.52 -1.071 0.772c-2.592 1.809 -5.347 3.31 -8.223 4.487v16.675 c0 23.447 -19.075 42.522 -42.521 42.522c-23.446 0 -42.521 -19.075 -42.521 -42.522v-41.572c-8.333 -1.124 -16.18 -4.7 -22.538 -10.348 c-3.066 -2.723 -5.676 -5.823 -7.8 -9.201C128.447 135.076 108.5 176.74 108.5 221.237c0 81.332 66.168 147.5 147.5 147.5 s147.5 -66.168 147.5 -147.5C403.5 177.968 384.591 137.312 352.206 109.437z"/><glyph unicode="&#xE031;" glyph-name="hand225" horiz-adv-x="512" d="M230.453 312c7.732 -0.001 15.432 -3.183 20.973 -9.42c10.277 -11.576 9.232 -29.297 -2.344 -39.57l-11.172 -9.928h126.492 c15.486 0 28.035 -12.546 28.035 -28.033c0 -15.477 -12.549 -28.033 -28.035 -28.033h-65.576c2.484 -4.188 3.934 -9.051 3.934 -14.271 c0 -11.892 -7.416 -22.037 -17.881 -26.109c2.791 -4.359 4.428 -9.521 4.428 -15.079c0 -13.702 -9.824 -25.089 -22.809 -27.534 c2.369 -4.117 3.748 -8.876 3.748 -13.963c0 -15.477 -12.555 -28.033 -28.035 -28.033L173.492 72c-29.787 0 -53.93 26.974 -53.93 60.242 v60.223c0 18.03 11.393 39.008 23.428 51.304l68.855 61.155C217.186 309.668 223.83 312 230.453 312 M230.455 337L230.455 337 c-12.99 0.001 -25.496 -4.753 -35.213 -13.387l-68.854 -61.152c-0.436 -0.387 -0.857 -0.789 -1.265 -1.205 c-8.083 -8.258 -15.499 -18.961 -20.884 -30.139c-6.332 -13.143 -9.678 -26.509 -9.678 -38.652v-60.223c0 -22.252 7.873 -43.302 22.168 -59.271 C131.723 56.224 151.881 47 173.492 47l68.729 0.026c29.234 0 53.025 23.79 53.025 53.033c0 0.258 -0.002 0.516 -0.006 0.773 c11.746 9.812 19.066 24.55 19.066 40.724c0 1.871 -0.099 3.732 -0.295 5.58c1.516 1.672 2.93 3.445 4.234 5.316 c4.146 5.941 6.99 12.574 8.428 19.563h37.729c29.244 0 53.035 23.791 53.035 53.033s-23.791 53.033 -53.035 53.033h-81.229 c0.101 0.91 0.178 1.827 0.232 2.748c0.837 14.138 -3.882 27.757 -13.284 38.348C260.059 330.505 245.604 336.998 230.455 337 L230.455 337L230.455 337z"/><glyph unicode="&#xE032;" glyph-name="hand226" horiz-adv-x="512" d="M280.597 342c9.365 -0.001 18.973 -6.367 21.828 -21.159c10.263 -53.176 -14.648 -92.984 -14.648 -92.984h53.946 c15.895 0 29.773 -12.879 29.773 -28.771c0 -15.885 -10.836 -28.772 -21.199 -28.772c2.55 -4.299 4.038 -9.29 4.038 -14.646 c0 -12.208 -7.611 -22.619 -18.353 -26.799c2.864 -4.476 4.546 -9.772 4.546 -15.477c0 -14.063 -10.086 -25.749 -23.412 -28.261 c2.434 -4.224 3.847 -9.109 3.847 -14.33c0 -15.885 -12.884 -28.771 -28.772 -28.771L261.663 42c-90.319 0 -73.312 31.335 -121.159 31.335 V192.031c30.568 0 57.156 1.621 83.819 43.766c18.678 29.521 30.692 48.09 35.718 88.036 C261.469 335.183 270.903 342 280.597 342 M280.599 367L280.599 367c-10.726 0 -21.161 -3.771 -29.381 -10.619 c-8.845 -7.369 -14.52 -17.82 -15.981 -29.428c-4.265 -33.898 -13.875 -49.086 -31.322 -76.656l-0.717 -1.133 c-20.329 -32.133 -36.275 -32.133 -62.693 -32.133c-13.807 0 -25 -11.193 -25 -25v-118.696c0 -13.808 11.193 -25 25 -25 c12.812 0 16.722 -2.515 25.291 -8.024c7.315 -4.704 17.334 -11.146 33.014 -15.887c16.52 -4.996 37.08 -7.424 62.854 -7.424 l30.551 0.028c29.627 0 53.749 24.122 53.749 53.771c0 0.366 -0.004 0.732 -0.011 1.099c12.055 9.948 19.577 24.981 19.577 41.492 c0 1.996 -0.111 3.982 -0.331 5.951c1.611 1.759 3.111 3.631 4.492 5.608c6.311 9.044 9.646 19.665 9.646 30.716 c0 0.643 -0.012 1.283 -0.035 1.924c10.421 9.954 17.196 25 17.196 41.495c0 14.528 -5.919 28.177 -16.668 38.433 c-10.367 9.892 -23.899 15.339 -38.105 15.339h-17.255c6.224 23.892 7.1 48.911 2.504 72.722 c-2.387 12.365 -8.11 22.808 -16.551 30.198C302.156 363.014 291.564 366.999 280.599 367L280.599 367z"/><glyph unicode="&#xE033;" glyph-name="home166" horiz-adv-x="512" d="M434.239 218.79l-170 149c-4.716 4.133 -11.763 4.133 -16.479 0l-170 -149c-5.191 -4.55 -5.711 -12.448 -1.161 -17.64 c4.55 -5.191 12.449 -5.711 17.64 -1.161l13.163 11.537v-185.915c0 -6.903 5.596 -12.5 12.5 -12.5h94.733h82.729h94.733 c6.904 0 12.5 5.597 12.5 12.5V211.525l13.163 -11.537c2.373 -2.079 5.31 -3.1 8.234 -3.1c3.476 0 6.934 1.441 9.405 4.261 C439.951 206.342 439.431 214.239 434.239 218.79zM227.135 38.111V141.083h57.729v-102.973H227.135zM379.598 233.34v-195.229 h-69.733V153.583c0 6.904 -5.597 12.5 -12.5 12.5h-82.729c-6.903 0 -12.5 -5.596 -12.5 -12.5v-115.473h-69.733V233.34 c0 0.032 -0.004 0.062 -0.004 0.093L256 341.768l123.603 -108.334C379.603 233.402 379.598 233.372 379.598 233.34zM228 253.763c0 -6.904 5.596 -12.5 12.5 -12.5h31c6.904 0 12.5 5.596 12.5 12.5s-5.596 12.5 -12.5 12.5h-31 C233.596 266.263 228 260.667 228 253.763z"/><glyph unicode="&#xE034;" glyph-name="label36" horiz-adv-x="512" d="M374.118 25.456c-3.614 0 -7.136 1.57 -9.558 4.441L256 158.611L147.44 29.897c-3.384 -4.013 -8.916 -5.481 -13.845 -3.682 c-4.93 1.802 -8.21 6.492 -8.21 11.741V346.043c0 6.903 5.597 12.5 12.5 12.5h236.23c6.903 0 12.5 -5.597 12.5 -12.5v-308.086 c0 -5.249 -3.28 -9.939 -8.21 -11.741C377.003 25.704 375.553 25.456 374.118 25.456zM256 190.5c3.684 0 7.18 -1.625 9.555 -4.441 l96.06 -113.893V333.543h-211.23v-261.377l96.06 113.893C248.82 188.875 252.316 190.5 256 190.5z"/><glyph unicode="&#xE035;" glyph-name="lcd2" horiz-adv-x="512" d="M425.5 337.235h-339c-6.904 0 -12.5 -5.596 -12.5 -12.5v-217c0 -6.904 5.596 -12.5 12.5 -12.5H208v-23.471h-29.748 c-6.904 0 -12.5 -5.597 -12.5 -12.5s5.596 -12.5 12.5 -12.5H220.5h71h42.248c6.903 0 12.5 5.597 12.5 12.5s-5.597 12.5 -12.5 12.5H304 v23.471h121.5c6.903 0 12.5 5.596 12.5 12.5v217C438 331.639 432.403 337.235 425.5 337.235zM279 71.765h-46v23.471h46V71.765 zM413 120.235h-14.219v10.59c0 6.903 -5.598 12.5 -12.5 12.5c-6.903 0 -12.5 -5.597 -12.5 -12.5v-10.59h-20.5v10.59 c0 6.903 -5.597 12.5 -12.5 12.5s-12.5 -5.597 -12.5 -12.5v-10.59H99v192h314V120.235z"/><glyph unicode="&#xE036;" glyph-name="left15" horiz-adv-x="512" d="M377.916 204.5H164.262l58.659 58.661c4.882 4.882 4.882 12.796 0 17.678c-4.883 4.881 -12.797 4.881 -17.678 0l-79.998 -80 c-4.882 -4.882 -4.882 -12.796 0 -17.678l80 -80c2.44 -2.44 5.64 -3.661 8.839 -3.661s6.398 1.221 8.839 3.661 c4.882 4.882 4.882 12.796 0 17.678L164.262 179.5h213.654c6.903 0 12.5 5.597 12.5 12.5S384.819 204.5 377.916 204.5z"/><glyph unicode="&#xE037;" glyph-name="like80" horiz-adv-x="512" d="M256 19.393c-3.478 0 -6.798 1.449 -9.164 3.998l-147.67 159.16c-0.038 0.041 -0.076 0.082 -0.113 0.124 c-17.925 19.846 -27.796 46.147 -27.796 74.061s9.871 54.215 27.796 74.061l2.244 2.484c18.246 20.201 42.608 31.327 68.599 31.327 c25.991 0 50.354 -11.126 68.601 -31.328L256 313.9l17.503 19.379c18.246 20.202 42.608 31.328 68.6 31.328 c25.991 0 50.353 -11.126 68.6 -31.329l2.241 -2.478c17.928 -19.851 27.799 -46.152 27.799 -74.065s-9.872 -54.215 -27.796 -74.061 c-0.037 -0.042 -0.075 -0.083 -0.113 -0.124l-147.671 -159.16C262.798 20.842 259.478 19.393 256 19.393zM117.552 199.491 L256 50.271l138.448 149.221c28.486 31.603 28.467 82.97 -0.054 114.549l-2.24 2.478c-13.449 14.891 -31.223 23.09 -50.051 23.09 s-36.602 -8.199 -50.047 -23.085l-26.779 -29.649c-2.37 -2.624 -5.741 -4.121 -9.276 -4.121s-6.906 1.497 -9.276 4.121l-26.779 29.648 c-13.446 14.887 -31.22 23.086 -50.048 23.086s-36.602 -8.199 -50.047 -23.085l-2.244 -2.484 C89.085 282.461 89.066 231.094 117.552 199.491z"/><glyph unicode="&#xE038;" glyph-name="location67" horiz-adv-x="512" d="M256 -0.5c-9.209 0 -18.442 6.437 -35.991 38.477c-10.677 19.493 -23.208 46.455 -35.287 75.92 c-21.741 53.034 -44.972 121.435 -44.972 154.354c0 64.101 52.149 116.25 116.25 116.25s116.25 -52.149 116.25 -116.25 c0 -32.919 -23.231 -101.319 -44.972 -154.354c-12.079 -29.465 -24.61 -56.427 -35.287 -75.92C274.442 5.937 265.209 -0.5 256 -0.5zM256 359.5c-50.315 0 -91.25 -40.935 -91.25 -91.25c0 -22.752 15.666 -76.525 39.909 -136.992c10.956 -27.324 22.621 -53.232 32.848 -72.953 c9.113 -17.572 15.069 -26.398 18.493 -30.73c3.424 4.332 9.38 13.158 18.493 30.73c10.227 19.721 21.892 45.629 32.848 72.953 c24.244 60.467 39.909 114.24 39.909 136.992C347.25 318.565 306.315 359.5 256 359.5zM256 226.036c-26.191 0 -47.5 21.309 -47.5 47.5s21.309 47.5 47.5 47.5s47.5 -21.309 47.5 -47.5S282.191 226.036 256 226.036zM256 296.036c-12.407 0 -22.5 -10.094 -22.5 -22.5s10.093 -22.5 22.5 -22.5s22.5 10.094 22.5 22.5S268.407 296.036 256 296.036z"/><glyph unicode="&#xE039;" glyph-name="location68" horiz-adv-x="512" d="M256 374.517C155.36 374.517 73.483 292.64 73.483 192S155.36 9.483 256 9.483S438.517 91.36 438.517 192 S356.64 374.517 256 374.517zM268.5 34.979v17.223c0 6.903 -5.597 12.5 -12.5 12.5s-12.5 -5.597 -12.5 -12.5v-17.223 c-76.908 6.067 -138.454 67.613 -144.521 144.521h17.223c6.903 0 12.5 5.597 12.5 12.5s-5.597 12.5 -12.5 12.5H98.979 c6.067 76.908 67.613 138.454 144.521 144.521v-17.223c0 -6.903 5.597 -12.5 12.5 -12.5s12.5 5.597 12.5 12.5V349.021 c76.908 -6.067 138.454 -67.613 144.521 -144.521h-17.223c-6.903 0 -12.5 -5.597 -12.5 -12.5s5.597 -12.5 12.5 -12.5h17.223 C406.954 102.592 345.408 41.046 268.5 34.979zM291.236 186.859c1.555 10.749 -1.794 22.077 -10.047 30.331c-6.729 6.729 -15.674 10.434 -25.189 10.434 c-1.743 0 -3.467 -0.127 -5.161 -0.372l-53.493 40.926c-4.979 3.809 -12.005 3.341 -16.435 -1.089c-4.431 -4.431 -4.896 -11.457 -1.089 -16.435 l40.941 -53.514c-1.555 -10.749 1.794 -22.077 10.047 -30.331c6.729 -6.729 15.674 -10.434 25.189 -10.434 c1.743 0 3.467 0.127 5.161 0.372l53.493 -40.926c2.255 -1.725 4.929 -2.572 7.592 -2.572c3.218 0 6.419 1.237 8.843 3.661 c4.431 4.431 4.896 11.457 1.089 16.435L291.236 186.859z"/><glyph unicode="&#xE03A;" glyph-name="magnifier52" horiz-adv-x="512" d="M406.098 342.098c-27.344 27.344 -63.7 42.403 -102.37 42.402c-0.002 0 0.001 0 -0.001 0 c-38.667 0 -75.026 -15.06 -102.368 -42.402c-27.343 -27.344 -42.402 -63.7 -42.402 -102.37c0 -26.388 7.018 -51.696 20.161 -73.801 L73.752 60.562C67.141 53.95 63.5 45.16 63.5 35.81s3.641 -18.14 10.252 -24.75l1.307 -1.307 C81.67 3.141 90.46 -0.5 99.81 -0.5s18.14 3.641 24.751 10.252l105.365 105.366c22.104 -13.144 47.413 -20.161 73.801 -20.161 c38.67 0 75.026 15.059 102.37 42.402c27.344 27.343 42.403 63.699 42.402 102.369C448.5 278.398 433.442 314.753 406.098 342.098zM106.884 27.43c-1.89 -1.89 -4.402 -2.93 -7.074 -2.93c-2.671 0 -5.183 1.041 -7.073 2.93l-1.308 1.308 c-1.889 1.889 -2.93 4.401 -2.93 7.072c0 2.672 1.041 5.184 2.93 7.074l102.489 102.488c2.369 -2.748 4.849 -5.421 7.44 -8.013 s5.265 -5.072 8.013 -7.44L106.884 27.43zM388.42 155.037c-22.622 -22.622 -52.7 -35.08 -84.692 -35.08 c-31.992 0 -62.069 12.458 -84.69 35.08c-22.622 22.622 -35.081 52.699 -35.08 84.69c0 31.993 12.458 62.07 35.08 84.692 c22.622 22.622 52.699 35.081 84.691 35.08c31.993 0 62.07 -12.458 84.692 -35.08s35.081 -52.7 35.08 -84.692 C423.5 207.736 411.042 177.659 388.42 155.037z"/><glyph unicode="&#xE03B;" glyph-name="medal1" horiz-adv-x="512" d="M393.344 414.008H118.656c-6.903 0 -12.5 -5.597 -12.5 -12.5v-149.332c0 -1.597 0.306 -3.179 0.901 -4.661l33.101 -82.378 c-10.55 -19.315 -16.115 -41.021 -16.115 -63.189c0 -72.761 59.195 -131.957 131.957 -131.957s131.957 59.195 131.957 131.957 c0 22.167 -5.565 43.874 -16.115 63.189l33.101 82.378c0.596 1.482 0.901 3.064 0.901 4.661V401.508 C405.844 408.412 400.247 414.008 393.344 414.008zM380.844 389.008v-111.88H131.156V389.008H380.844zM354.697 189.522 c-9.502 10.697 -20.717 19.846 -33.167 26.983c-19.858 11.383 -42.519 17.399 -65.53 17.399s-45.671 -6.017 -65.529 -17.399 c-12.451 -7.137 -23.666 -16.286 -33.168 -26.983l-25.156 62.606h247.707L354.697 189.522zM256 -5.008 c-58.977 0 -106.957 47.98 -106.957 106.957c0 19.714 5.407 38.977 15.637 55.707c19.623 32.091 53.762 51.25 91.32 51.25 s71.697 -19.159 91.32 -51.25c10.229 -16.73 15.637 -35.993 15.637 -55.707C362.957 42.972 314.977 -5.008 256 -5.008zM335.765 142.725l-47.372 6.883l-21.184 42.924c-2.105 4.267 -6.451 6.968 -11.209 6.968s-9.104 -2.701 -11.209 -6.968 l-21.186 -42.924l-47.37 -6.883c-4.708 -0.684 -8.62 -3.982 -10.091 -8.507c-1.47 -4.525 -0.243 -9.493 3.164 -12.814l34.278 -33.413 l-8.093 -47.178c-0.804 -4.689 1.124 -9.429 4.973 -12.226c3.85 -2.797 8.956 -3.166 13.164 -0.951L256 49.91l42.369 -22.275 c1.829 -0.962 3.825 -1.436 5.815 -1.436c2.591 0 5.171 0.805 7.349 2.387c3.849 2.797 5.776 7.537 4.973 12.226l-8.093 47.178 l34.278 33.413c3.407 3.321 4.634 8.289 3.164 12.814C344.385 138.742 340.473 142.041 335.765 142.725zM286.258 101.306 c-2.946 -2.872 -4.291 -7.009 -3.596 -11.064l4.922 -28.692l-25.768 13.546c-1.82 0.958 -3.818 1.436 -5.816 1.436 s-3.996 -0.479 -5.816 -1.436l-25.768 -13.546l4.922 28.692c0.695 4.055 -0.649 8.193 -3.596 11.064l-20.847 20.32l28.809 4.186 c4.071 0.592 7.591 3.148 9.411 6.838L256 158.755l12.883 -26.104c1.82 -3.689 5.34 -6.247 9.411 -6.838l28.811 -4.186L286.258 101.306z"/><glyph unicode="&#xE03C;" glyph-name="message30" horiz-adv-x="512" d="M385.83 329.098C351.033 357.237 304.926 372.734 256 372.734s-95.033 -15.497 -129.83 -43.637 c-35.571 -28.767 -55.161 -67.248 -55.161 -108.355c0 -41.108 19.59 -79.591 55.161 -108.356c34.797 -28.141 80.904 -43.638 129.83 -43.638 c4.982 0 10 0.166 14.995 0.495l31.509 -51.959c2.213 -3.648 6.134 -5.916 10.399 -6.016c0.097 -0.003 0.192 -0.003 0.29 -0.003 c4.156 0 8.051 2.069 10.376 5.53l66.711 99.325c32.727 28.33 50.711 65.372 50.711 104.621 C440.991 261.85 421.401 300.331 385.83 329.098zM371.913 133.318l-58.183 -86.333l-25.371 41.838 c-2.28 3.761 -6.348 6.019 -10.686 6.019c-0.419 0 -0.84 -0.021 -1.262 -0.063c-6.752 -0.684 -13.619 -1.03 -20.412 -1.03 c-88.22 0 -159.991 56.97 -159.991 126.994c0 70.023 71.771 126.992 159.991 126.992s159.991 -56.969 159.991 -126.992 C415.991 188.106 400.337 157.059 371.913 133.318z"/><glyph unicode="&#xE03D;" glyph-name="message31" horiz-adv-x="512" d="M371.742 363.012H140.258c-34.463 0 -62.5 -28.037 -62.5 -62.5v-142.78c0 -34.463 28.037 -62.5 62.5 -62.5l147.443 -0.001 l70.581 -70.581c2.392 -2.392 5.588 -3.661 8.842 -3.661c1.61 0 3.234 0.312 4.78 0.952c4.671 1.935 7.717 6.492 7.717 11.548v62.237 c30.759 3.885 54.621 30.211 54.621 62.006v142.78C434.242 334.975 406.205 363.012 371.742 363.012zM409.242 157.731 c0 -20.678 -16.822 -37.5 -37.5 -37.5h-4.621c-6.903 0 -12.5 -5.597 -12.5 -12.5v-44.064l-52.903 52.903 c-2.344 2.345 -5.523 3.661 -8.839 3.661H140.258c-20.678 0 -37.5 16.822 -37.5 37.5v142.78c0 20.678 16.822 37.5 37.5 37.5h231.484 c20.678 0 37.5 -16.822 37.5 -37.5V157.731zM348 274.5H164c-6.903 0 -12.5 -5.596 -12.5 -12.5c0 -6.903 5.597 -12.5 12.5 -12.5h184c6.903 0 12.5 5.597 12.5 12.5 C360.5 268.904 354.903 274.5 348 274.5zM348 204.5H164c-6.903 0 -12.5 -5.596 -12.5 -12.5c0 -6.903 5.597 -12.5 12.5 -12.5h184c6.903 0 12.5 5.597 12.5 12.5 C360.5 198.904 354.903 204.5 348 204.5z"/><glyph unicode="&#xE03E;" glyph-name="microphone" horiz-adv-x="512" d="M377.994 230.375c0 6.903 -5.597 12.5 -12.5 12.5c-6.904 0 -12.5 -5.597 -12.5 -12.5c0 -55.6 -36.895 -101.652 -84.494 -108.597 v27.124h0.08c34.463 0 62.5 28.037 62.5 62.5V334.66c0 34.463 -28.037 62.5 -62.5 62.5h-25.16c-34.463 0 -62.5 -28.037 -62.5 -62.5 v-123.258c0 -34.463 28.037 -62.5 62.5 -62.5h0.08v-27.124c-47.6 6.944 -84.494 52.997 -84.494 108.597c0 6.903 -5.598 12.5 -12.5 12.5 c-6.903 0 -12.5 -5.597 -12.5 -12.5c0 -69.514 48.076 -126.879 109.494 -133.803v-97.232c0 -6.903 5.597 -12.5 12.5 -12.5s12.5 5.597 12.5 12.5 v97.232C329.918 103.496 377.994 160.861 377.994 230.375zM243.42 372.16h25.16c20.678 0 37.5 -16.822 37.5 -37.5v-14.449H205.92 V334.66C205.92 355.338 222.742 372.16 243.42 372.16zM205.92 211.402v83.809h100.16v-83.809c0 -20.678 -16.822 -37.5 -37.5 -37.5h-25.16 C222.742 173.902 205.92 190.725 205.92 211.402z"/><glyph unicode="&#xE03F;" glyph-name="mobile phone20" horiz-adv-x="512" d="M364.691 381.5h-218c-6.903 0 -12.5 -5.597 -12.5 -12.5v-354c0 -6.903 5.597 -12.5 12.5 -12.5h218c6.902 0 12.5 5.597 12.5 12.5V369 C377.191 375.903 371.594 381.5 364.691 381.5zM159.191 75.427V308.573h193v-233.146H159.191zM309.051 356.5v-0.765 c0 -6.904 5.597 -12.5 12.5 -12.5s12.5 5.596 12.5 12.5V356.5h18.141v-22.927h-193V356.5H309.051zM159.191 27.5v22.927h79.914 c2.736 -6.46 9.141 -11.004 16.586 -11.004s13.85 4.543 16.586 11.004h79.914V27.5H159.191z"/><glyph unicode="&#xE040;" glyph-name="mute39" horiz-adv-x="512" d="M298.979 360.121c-4.203 2.13 -9.245 1.715 -13.043 -1.071L149.57 259.01c-2.183 1.861 -5.008 2.99 -8.101 2.99H94.861 c-6.903 0 -12.5 -5.597 -12.5 -12.5v-115c0 -6.903 5.597 -12.5 12.5 -12.5h46.607c3.094 0 5.919 1.13 8.102 2.991L285.938 24.95 c2.186 -1.604 4.783 -2.421 7.395 -2.421c1.928 0 3.864 0.445 5.648 1.35c4.202 2.129 6.851 6.439 6.851 11.15L305.83 348.971 C305.83 353.682 303.182 357.992 298.979 360.121zM107.361 237h21.607v-90h-21.607V237zM153.969 152.771v78.458l126.861 93.068 l0.002 -264.596L153.969 152.771zM389.356 192l36.621 36.621c4.881 4.882 4.881 12.796 0 17.678c-4.882 4.881 -12.796 4.881 -17.678 0l-36.621 -36.621 l-36.621 36.621c-4.882 4.881 -12.796 4.881 -17.678 0c-4.881 -4.882 -4.881 -12.796 0 -17.678L354.001 192l-36.621 -36.621 c-4.881 -4.882 -4.881 -12.796 0 -17.678c2.441 -2.44 5.64 -3.661 8.839 -3.661s6.397 1.221 8.839 3.661l36.621 36.621l36.621 -36.621 c2.44 -2.44 5.64 -3.661 8.839 -3.661s6.398 1.221 8.839 3.661c4.881 4.882 4.881 12.796 0 17.678L389.356 192z"/><glyph unicode="&#xE041;" glyph-name="note54" horiz-adv-x="512" d="M162.303 18.547c-32.118 0 -58.248 26.129 -58.248 58.247c0 32.118 26.13 58.248 58.248 58.248 c6.902 0 12.5 -5.596 12.5 -12.5c0 -6.903 -5.598 -12.5 -12.5 -12.5c-18.333 0 -33.248 -14.915 -33.248 -33.248 c0 -18.333 14.915 -33.247 33.248 -33.247c18.332 0 33.246 14.915 33.246 33.247l-0.045 234.678 c-0.001 5.864 4.074 10.94 9.799 12.207l187.441 41.479c3.699 0.819 7.578 -0.086 10.533 -2.462c2.955 -2.375 4.672 -5.965 4.668 -9.757 l-0.254 -227.333c0 -32.104 -26.129 -58.233 -58.246 -58.233c-32.119 0 -58.248 26.129 -58.248 58.247 c0 32.118 26.129 58.248 58.248 58.248c6.903 0 12.5 -5.597 12.5 -12.5c0 -6.904 -5.597 -12.5 -12.5 -12.5 c-18.333 0 -33.248 -14.915 -33.248 -33.248c0 -18.333 14.915 -33.247 33.248 -33.247c18.332 0 33.246 14.915 33.246 33.247l0.236 211.761 l-162.422 -35.942l0.043 -224.643C220.549 44.676 194.42 18.547 162.303 18.547z"/><glyph unicode="&#xE042;" glyph-name="notebook79" horiz-adv-x="512" d="M471 113.774h-19.51V334.763c0 6.903 -5.597 12.5 -12.5 12.5H73.01c-6.903 0 -12.5 -5.597 -12.5 -12.5v-220.988H41 c-6.904 0 -12.5 -5.597 -12.5 -12.5v-28.037c0 -4.251 2.16 -8.21 5.732 -10.511c4.135 -2.66 45.463 -25.989 221.768 -25.989 s217.633 23.329 221.767 25.989c3.573 2.301 5.733 6.26 5.733 10.511v28.037C483.5 108.178 477.903 113.774 471 113.774zM85.51 322.263H243.5v-1.577c0 -6.903 5.596 -12.5 12.5 -12.5c6.903 0 12.5 5.597 12.5 12.5v1.577h157.99v-208.488H85.51V322.263zM458.5 81.301c-15.715 -5.736 -67.635 -19.563 -202.5 -19.563c-133.637 0 -186.316 13.871 -202.5 19.674v7.363h19.51h217.771v-3.537 c0 -6.903 5.597 -12.5 12.5 -12.5s12.5 5.597 12.5 12.5v3.537h13v-3.537c0 -6.903 5.597 -12.5 12.5 -12.5s12.5 5.597 12.5 12.5v3.537 h85.209h19.51V81.301z"/><glyph unicode="&#xE043;" glyph-name="notes26" horiz-adv-x="512" d="M385.743 351.552H338.5V369.916c0 6.904 -5.597 12.5 -12.5 12.5s-12.5 -5.596 -12.5 -12.5v-18.364h-45V369.916 c0 6.904 -5.597 12.5 -12.5 12.5s-12.5 -5.596 -12.5 -12.5v-18.364h-45V369.916c0 6.904 -5.597 12.5 -12.5 12.5s-12.5 -5.596 -12.5 -12.5 v-18.364h-47.243c-6.903 0 -12.5 -5.597 -12.5 -12.5v-324.968c0 -6.903 5.597 -12.5 12.5 -12.5h259.486c6.903 0 12.5 5.597 12.5 12.5 V339.052C398.243 345.955 392.646 351.552 385.743 351.552zM373.243 26.584H138.757V326.552H173.5v-14.59 c0 -6.904 5.597 -12.5 12.5 -12.5s12.5 5.596 12.5 12.5v14.59h45v-14.59c0 -6.904 5.597 -12.5 12.5 -12.5s12.5 5.596 12.5 12.5v14.59h45 v-14.59c0 -6.904 5.597 -12.5 12.5 -12.5s12.5 5.596 12.5 12.5v14.59h34.743V26.584zM330 242.658H182c-6.903 0 -12.5 -5.597 -12.5 -12.5s5.597 -12.5 12.5 -12.5h148c6.903 0 12.5 5.597 12.5 12.5 S336.903 242.658 330 242.658zM330 172.658H182c-6.903 0 -12.5 -5.597 -12.5 -12.5s5.597 -12.5 12.5 -12.5h148c6.903 0 12.5 5.597 12.5 12.5 S336.903 172.658 330 172.658zM330 102.658H182c-6.903 0 -12.5 -5.597 -12.5 -12.5s5.597 -12.5 12.5 -12.5h148c6.903 0 12.5 5.597 12.5 12.5 S336.903 102.658 330 102.658z"/><glyph unicode="&#xE044;" glyph-name="notes27" horiz-adv-x="512" d="M387.993 384.409H196.914c-3.315 0 -6.495 -1.317 -8.839 -3.661l-72.907 -72.909c-2.344 -2.344 -3.661 -5.524 -3.661 -8.839v-286.908 c0 -6.903 5.597 -12.5 12.5 -12.5h263.986c6.903 0 12.5 5.597 12.5 12.5V371.909C400.493 378.812 394.896 384.409 387.993 384.409zM184.414 341.73V311.5h-30.23L184.414 341.73zM375.493 24.591H136.507V286.5h60.407c6.903 0 12.5 5.597 12.5 12.5V359.409 h166.079V24.591zM188.5 226.68c-6.903 0 -12.5 -5.596 -12.5 -12.5s5.597 -12.5 12.5 -12.5h37c6.903 0 12.5 5.596 12.5 12.5s-5.597 12.5 -12.5 12.5 H188.5zM256.5 201.68h67c6.903 0 12.5 5.596 12.5 12.5s-5.597 12.5 -12.5 12.5h-67c-6.903 0 -12.5 -5.596 -12.5 -12.5 S249.597 201.68 256.5 201.68zM188.5 151.68h77c6.903 0 12.5 5.597 12.5 12.5s-5.597 12.5 -12.5 12.5h-77c-6.903 0 -12.5 -5.597 -12.5 -12.5 S181.597 151.68 188.5 151.68zM323.5 176.68h-27c-6.903 0 -12.5 -5.596 -12.5 -12.5s5.597 -12.5 12.5 -12.5h27c6.903 0 12.5 5.596 12.5 12.5 S330.403 176.68 323.5 176.68zM220.5 126.68h-32c-6.903 0 -12.5 -5.596 -12.5 -12.5s5.597 -12.5 12.5 -12.5h32c6.903 0 12.5 5.596 12.5 12.5 S227.403 126.68 220.5 126.68zM323.5 126.68h-72c-6.903 0 -12.5 -5.597 -12.5 -12.5s5.597 -12.5 12.5 -12.5h72c6.903 0 12.5 5.597 12.5 12.5 S330.403 126.68 323.5 126.68z"/><glyph unicode="&#xE045;" glyph-name="outbox4" horiz-adv-x="512" d="M176 276.978c3.198 0 6.398 1.221 8.839 3.661L243.5 339.3l0 -213.654c0 -6.903 5.596 -12.5 12.5 -12.5 c6.903 0 12.5 5.597 12.5 12.5l0 213.654l58.661 -58.659c4.882 -4.881 12.796 -4.881 17.678 0c4.881 4.882 4.881 12.796 0 17.678 l-80 79.998c-4.882 4.881 -12.796 4.881 -17.677 0l-80.001 -80c-4.881 -4.882 -4.881 -12.796 0 -17.678 C169.602 278.197 172.801 276.978 176 276.978zM424.885 138.146H311.497c-6.904 0 -12.5 -5.597 -12.5 -12.5v-23.454c0 -6.903 5.596 -12.5 12.5 -12.5s12.5 5.597 12.5 12.5 v10.954h88.388v-86.123H99.615v86.123h88.388v-10.954c0 -6.903 5.596 -12.5 12.5 -12.5c6.903 0 12.5 5.597 12.5 12.5v23.454 c0 6.903 -5.597 12.5 -12.5 12.5H87.115c-6.904 0 -12.5 -5.597 -12.5 -12.5v-111.123c0 -6.903 5.596 -12.5 12.5 -12.5h337.77 c6.904 0 12.5 5.597 12.5 12.5V125.646C437.385 132.549 431.789 138.146 424.885 138.146z"/><glyph unicode="&#xE046;" glyph-name="padlock70" horiz-adv-x="512" d="M373.461 235.291h-36.963l10.94 46.389c8.437 35.774 -13.806 71.743 -49.579 80.18l-51.125 12.057 c-17.325 4.085 -35.212 1.181 -50.357 -8.183c-15.145 -9.364 -25.736 -24.065 -29.822 -41.396c-1.585 -6.72 2.578 -13.451 9.297 -15.035 c6.717 -1.585 13.451 2.578 15.035 9.297c2.554 10.83 9.173 20.018 18.638 25.87c9.465 5.852 20.64 7.67 31.472 5.114l51.125 -12.057 c22.357 -5.273 36.258 -27.752 30.985 -50.109l-12.294 -52.127H138.539c-6.903 0 -12.5 -5.597 -12.5 -12.5v-122.094 c0 -50.953 41.453 -92.406 92.405 -92.406h75.111c50.952 0 92.405 41.453 92.405 92.406V222.791 C385.961 229.694 380.364 235.291 373.461 235.291zM360.961 100.697c0 -37.168 -30.238 -67.406 -67.405 -67.406h-75.111 c-37.167 0 -67.405 30.238 -67.405 67.406V210.291h209.922V100.697zM243.5 74.791c0 -6.903 5.596 -12.5 12.5 -12.5c6.903 0 12.5 5.597 12.5 12.5v35.69c1.488 2.057 2.375 4.577 2.375 7.31 c0 6.903 -5.597 12.5 -12.5 12.5h-4.75c-6.903 0 -12.5 -5.597 -12.5 -12.5c0 -2.732 0.887 -5.253 2.375 -7.31V74.791z"/><glyph unicode="&#xE047;" glyph-name="padlock71" horiz-adv-x="512" d="M373.461 246.754h-24.539v50.833c0 36.756 -29.903 66.659 -66.659 66.659h-52.527c-36.756 0 -66.659 -29.903 -66.659 -66.659 v-50.833h-24.539c-6.904 0 -12.5 -5.596 -12.5 -12.5v-122.095c0 -50.953 41.453 -92.405 92.406 -92.405h75.11 c50.953 0 92.406 41.453 92.406 92.405V234.254C385.961 241.158 380.365 246.754 373.461 246.754zM188.078 297.587 c0 22.971 18.688 41.659 41.659 41.659h52.527c22.971 0 41.659 -18.688 41.659 -41.659v-50.833H188.078V297.587zM360.961 112.159 c0 -37.167 -30.238 -67.405 -67.406 -67.405h-75.11c-37.167 0 -67.406 30.238 -67.406 67.405V221.754h209.922V112.159zM243.5 86.254c0 -6.904 5.596 -12.5 12.5 -12.5s12.5 5.596 12.5 12.5v35.69c1.488 2.057 2.375 4.577 2.375 7.31 c0 6.903 -5.597 12.5 -12.5 12.5h-4.75c-6.903 0 -12.5 -5.597 -12.5 -12.5c0 -2.732 0.887 -5.253 2.375 -7.31V86.254z"/><glyph unicode="&#xE048;" glyph-name="password19" horiz-adv-x="512" d="M388.691 324.691C366.246 347.138 336.4 359.5 304.655 359.5s-61.591 -12.362 -84.038 -34.809 c-15.987 -15.987 -27.031 -36.051 -31.938 -58.024c-4.195 -18.785 -3.78 -38.241 1.156 -56.734l-97.674 -97.673 c-2.419 -2.419 -3.741 -5.723 -3.657 -9.143l1.577 -64.845c0.162 -6.666 5.526 -12.03 12.192 -12.193l64.845 -1.576 c0.102 -0.003 0.203 -0.004 0.304 -0.004c3.311 0 6.492 1.314 8.839 3.661l72.549 72.549c0.001 0.001 0.003 0.003 0.005 0.004 s0.003 0.003 0.005 0.005l25.115 25.115c10.002 -2.67 20.307 -4.021 30.73 -4.021c0.002 0 0 0 0.002 0 c31.741 0 61.583 12.361 84.024 34.804C435.03 202.956 435.03 278.354 388.691 324.691zM371.014 174.294 c-17.722 -17.722 -41.285 -27.482 -66.349 -27.481c-10.334 0 -20.516 1.678 -30.262 4.986c-4.507 1.53 -9.492 0.367 -12.857 -2.998 l-21.569 -21.569l-5.871 5.872c-4.881 4.881 -12.795 4.882 -17.678 0.001c-4.882 -4.881 -4.882 -12.796 -0.001 -17.678l5.872 -5.873 l-24.1 -24.1l-5.872 5.873c-4.881 4.881 -12.795 4.881 -17.678 0c-4.881 -4.881 -4.882 -12.796 0 -17.678l5.872 -5.873l-18.151 -18.151 l-47.587 1.157l-1.157 47.587l99.176 99.175c3.365 3.365 4.528 8.35 2.998 12.857c-11.586 34.131 -2.967 71.15 22.495 96.611 c17.725 17.725 41.292 27.486 66.36 27.486c20.851 0 40.66 -6.76 56.936 -19.232l-36.033 -36.033 c-5.959 3.139 -12.628 4.809 -19.555 4.809c-11.229 0 -21.787 -4.373 -29.729 -12.314c-16.391 -16.392 -16.39 -43.063 0.002 -59.455 c7.94 -7.94 18.498 -12.313 29.727 -12.313c11.228 0 21.786 4.373 29.726 12.313c7.941 7.941 12.315 18.499 12.315 29.728 c0 6.927 -1.669 13.596 -4.809 19.555l36.012 36.011C407.334 260.807 404.606 207.887 371.014 174.294zM318.053 254.051 c3.219 -3.219 4.992 -7.498 4.992 -12.048c0 -4.551 -1.773 -8.831 -4.993 -12.05c-3.219 -3.218 -7.498 -4.991 -12.048 -4.991 c-4.551 0 -8.831 1.772 -12.048 4.991c-6.645 6.645 -6.646 17.456 -0.003 24.099c3.219 3.219 7.499 4.992 12.051 4.992 C310.554 259.043 314.833 257.271 318.053 254.051z"/><glyph unicode="&#xE049;" glyph-name="pencil124" horiz-adv-x="512" d="M424.839 273.89l-43.452 43.453c-0.008 0.007 -0.014 0.016 -0.02 0.023c-0.008 0.007 -0.018 0.014 -0.023 0.021l-43.453 43.454 c-2.344 2.344 -5.523 3.661 -8.839 3.661s-6.494 -1.317 -8.839 -3.661l-210.43 -210.427c-1.727 -1.726 -2.909 -3.92 -3.404 -6.312 L83.758 34.527c-0.851 -4.12 0.429 -8.392 3.403 -11.366c2.368 -2.368 5.558 -3.661 8.839 -3.661c0.841 0 1.688 0.085 2.527 0.258 l109.57 22.625c2.392 0.494 4.585 1.677 6.312 3.403l210.43 210.427C429.721 261.093 429.721 269.008 424.839 273.89zM126.176 116.341l54.164 -54.164l-68.256 -14.093L126.176 116.341zM205.57 72.302l-69.271 69.272l192.753 192.749l25.796 -25.797 L238.21 191.886c-4.882 -4.882 -4.882 -12.796 0 -17.678c2.44 -2.441 5.64 -3.661 8.839 -3.661s6.398 1.22 8.839 3.661l116.639 116.64 l25.796 -25.797L205.57 72.302z"/><glyph unicode="&#xE04A;" glyph-name="pin60" horiz-adv-x="512" d="M256 368.259c-76.645 0 -139 -62.355 -139 -139c0 -28.248 8.428 -55.441 24.374 -78.639c14.717 -21.411 34.875 -38.124 58.495 -48.55 l45.251 -79.984c2.218 -3.921 6.375 -6.345 10.879 -6.345s8.661 2.424 10.879 6.345l45.251 79.984 c23.62 10.426 43.778 27.139 58.495 48.55C386.572 173.818 395 201.011 395 229.259C395 305.904 332.645 368.259 256 368.259zM298.664 123.516c-2.621 -1.059 -4.806 -2.975 -6.198 -5.435L256 53.626l-36.466 64.455c-1.392 2.46 -3.577 4.376 -6.198 5.435 C170.001 141.02 142 182.526 142 229.259c0 62.86 51.14 114 114 114s114 -51.14 114 -114C370 182.526 341.999 141.02 298.664 123.516 zM256 282.5c-28.949 0 -52.5 -23.551 -52.5 -52.5s23.551 -52.5 52.5 -52.5s52.5 23.551 52.5 52.5S284.949 282.5 256 282.5zM256 202.5c-15.164 0 -27.5 12.336 -27.5 27.5s12.336 27.5 27.5 27.5s27.5 -12.336 27.5 -27.5S271.164 202.5 256 202.5z"/><glyph unicode="&#xE04B;" glyph-name="pin61" horiz-adv-x="512" d="M439.839 240.784L304.782 375.84c-4.882 4.881 -12.796 4.881 -17.678 0c-10.44 -10.439 -19.515 -44.235 -22.42 -55.99 c-0.001 -0.001 -0.002 -0.002 -0.003 -0.003l-54.232 -54.233c-4.916 1.649 -10.096 2.502 -15.334 2.502 c-12.848 0 -24.927 -5.003 -34.016 -14.089c-18.75 -18.755 -18.75 -49.271 0.001 -68.026l35.61 -35.61L72.161 25.838 c-4.881 -4.882 -4.881 -12.796 0 -17.678c2.441 -2.44 5.64 -3.661 8.839 -3.661s6.398 1.221 8.839 3.661l124.549 124.552l35.613 -35.613 c9.086 -9.085 21.166 -14.089 34.014 -14.089c12.849 0 24.928 5.004 34.011 14.088c13.125 13.122 17.339 32.322 11.595 49.359 l54.225 54.225c11.751 2.903 45.55 11.976 55.996 22.428C444.721 227.991 444.719 235.903 439.839 240.784zM374.851 224.223 c-2.641 -0.531 -5.039 -1.9 -6.838 -3.904c-0.667 -0.743 -1.271 -1.385 -1.844 -1.958l-60.319 -60.319c-4.033 -4.033 -4.825 -10.284 -1.924 -15.195 c5.355 -9.067 3.885 -20.609 -3.577 -28.069c-4.362 -4.363 -10.164 -6.767 -16.334 -6.767c-6.171 0 -11.973 2.403 -16.336 6.767l-44.43 44.431 c-0.007 0.007 -0.013 0.016 -0.021 0.022s-0.016 0.013 -0.023 0.021l-44.426 44.427c-9.006 9.008 -9.006 23.665 -0.002 32.672 c4.365 4.363 10.167 6.767 16.338 6.767c4.141 0 8.197 -1.103 11.731 -3.189c4.912 -2.9 11.163 -2.109 15.196 1.924l60.304 60.306 c0.607 0.605 1.258 1.218 1.936 1.821c2.023 1.802 3.407 4.213 3.941 6.869c1.773 8.813 6.467 24.428 10.739 35.46l111.341 -111.34 C399.259 230.681 383.659 225.993 374.851 224.223z"/><glyph unicode="&#xE04C;" glyph-name="play120" horiz-adv-x="512" d="M381.351 389.5H130.649c-39.784 0 -72.15 -32.367 -72.15 -72.151v-250.698c0 -39.784 32.366 -72.151 72.15 -72.151h250.701 c39.784 0 72.15 32.367 72.15 72.151V317.349C453.501 357.133 421.135 389.5 381.351 389.5zM428.501 66.651 c0 -25.999 -21.151 -47.151 -47.15 -47.151H130.649c-25.999 0 -47.15 21.152 -47.15 47.151V317.349c0 25.999 21.151 47.151 47.15 47.151 h250.701c25.999 0 47.15 -21.152 47.15 -47.151V66.651zM342.4 201.754L215.234 303.675c-3.751 3.006 -8.893 3.596 -13.228 1.515c-4.333 -2.08 -7.09 -6.461 -7.09 -11.269v-203.842 c0 -4.807 2.757 -9.188 7.09 -11.269c1.722 -0.827 3.569 -1.231 5.408 -1.231c2.791 0 5.559 0.934 7.819 2.746L342.4 182.246 c2.96 2.373 4.683 5.96 4.683 9.754S345.36 199.381 342.4 201.754zM219.917 116.117V267.883L314.596 192L219.917 116.117z"/><glyph unicode="&#xE04D;" glyph-name="power" horiz-adv-x="512" d="M256 193.117c-6.903 0 -12.5 5.597 -12.5 12.5V356.982c0 6.903 5.597 12.5 12.5 12.5s12.5 -5.597 12.5 -12.5v-151.365 C268.5 198.714 262.903 193.117 256 193.117zM256 14.518c-87.831 0 -159.286 71.455 -159.286 159.285c0 35.123 11.209 68.43 32.417 96.319 c20.515 26.979 49.637 47.061 82 56.545c6.625 1.949 13.569 -1.855 15.511 -8.479c1.941 -6.625 -1.855 -13.569 -8.48 -15.511 c-56.788 -16.644 -96.449 -69.638 -96.449 -128.874c0 -74.045 60.24 -134.285 134.286 -134.285c74.045 0 134.286 60.24 134.286 134.285 c0 59.236 -39.661 112.23 -96.449 128.874c-6.625 1.941 -10.421 8.886 -8.48 15.511s8.885 10.426 15.511 8.479 c32.364 -9.484 61.485 -29.566 82 -56.545c21.208 -27.89 32.417 -61.196 32.417 -96.319C415.286 85.973 343.831 14.518 256 14.518z"/><glyph unicode="&#xE04E;" glyph-name="profile29" horiz-adv-x="512" d="M333.357 184.298h-16.123c31.147 20.151 51.804 55.193 51.804 94.971c0 62.33 -50.708 113.038 -113.038 113.038 c-62.33 0 -113.038 -50.708 -113.038 -113.038c0 -39.778 20.656 -74.82 51.804 -94.971h-16.123c-41.434 0 -75.143 -33.708 -75.143 -75.141 v-104.964c0 -6.903 5.597 -12.5 12.5 -12.5h280c6.903 0 12.5 5.597 12.5 12.5V109.157C408.5 150.59 374.791 184.298 333.357 184.298zM167.962 279.269c0 48.544 39.493 88.038 88.038 88.038c48.544 0 88.038 -39.494 88.038 -88.038 c0 -48.543 -39.494 -88.036 -88.038 -88.036C207.455 191.233 167.962 230.726 167.962 279.269zM292.573 172.309L256 135.735 l-36.573 36.573c11.477 -3.935 23.779 -6.075 36.573 -6.075S281.097 168.374 292.573 172.309zM383.5 16.693h-34v60.06 c0 6.903 -5.597 12.5 -12.5 12.5s-12.5 -5.597 -12.5 -12.5v-60.06h-137v60.06c0 6.903 -5.597 12.5 -12.5 12.5s-12.5 -5.597 -12.5 -12.5v-60.06 h-34v92.464c0 27.647 22.494 50.141 50.143 50.141h18.439l50.079 -50.079c2.441 -2.441 5.64 -3.661 8.839 -3.661 s6.397 1.22 8.839 3.661l50.079 50.079h18.439c27.649 0 50.143 -22.493 50.143 -50.141V16.693z"/><glyph unicode="&#xE04F;" glyph-name="question57" horiz-adv-x="512" d="M381.351 389.5H130.649c-39.784 0 -72.15 -32.366 -72.15 -72.15V66.65c0 -39.784 32.367 -72.15 72.15 -72.15h250.701 c39.784 0 72.15 32.366 72.15 72.15V317.35C453.501 357.134 421.134 389.5 381.351 389.5zM428.501 66.65 c0 -25.999 -21.151 -47.15 -47.15 -47.15H130.649c-25.999 0 -47.15 21.151 -47.15 47.15V317.35c0 25.999 21.151 47.15 47.15 47.15h250.701 c25.999 0 47.15 -21.151 47.15 -47.15V66.65zM256 309.593c-33.775 0 -61.253 -27.479 -61.253 -61.254c0 -6.903 5.596 -12.5 12.5 -12.5s12.5 5.597 12.5 12.5 c0 19.99 16.263 36.254 36.253 36.254s36.253 -16.264 36.253 -36.254c0 -11.497 -8.315 -19.183 -22.01 -30.474 c-12.536 -10.334 -26.743 -22.048 -26.743 -40.67v-40.103c0 -6.903 5.597 -12.5 12.5 -12.5s12.5 5.597 12.5 12.5v40.103 c0 6.832 8.178 13.574 17.646 21.381c13.859 11.426 31.106 25.646 31.106 49.763C317.253 282.114 289.775 309.593 256 309.593zM256 106.476c-8.842 0 -16.034 -7.193 -16.034 -16.034s7.192 -16.034 16.034 -16.034c8.841 0 16.034 7.193 16.034 16.034 S264.841 106.476 256 106.476z"/><glyph unicode="&#xE050;" glyph-name="rain2" horiz-adv-x="512" d="M405.385 320.33C365.396 354.869 312.343 373.891 256 373.891S146.604 354.869 106.615 320.33 c-40.512 -34.991 -62.822 -81.667 -62.822 -131.43c0 -6.724 5.314 -12.193 11.97 -12.473c0.668 -0.109 1.338 -0.184 2.006 -0.184 c4.448 0 8.754 2.38 11.013 6.569c11.576 21.465 38.952 39.452 68.885 32.29c17.222 -4.119 32.172 -15.889 41.018 -32.29 c3.277 -6.077 10.86 -8.346 16.936 -5.068c2.177 1.175 3.856 2.907 4.976 4.92c0.032 0.049 0.064 0.097 0.093 0.149 c8.077 14.976 23.851 28.248 42.812 32.477v-157.885c0 -26.079 21.216 -47.295 47.295 -47.295s47.295 21.216 47.295 47.295 c0 6.903 -5.596 12.5 -12.5 12.5c-6.903 0 -12.5 -5.597 -12.5 -12.5c0 -12.293 -10.001 -22.295 -22.295 -22.295S268.5 45.11 268.5 57.404 V215.331c0.357 -0.079 0.714 -0.144 1.072 -0.229c17.204 -4.115 32.14 -15.864 40.988 -32.237c0 0.002 0.001 0.004 0.001 0.006 c1.117 -2.103 2.844 -3.912 5.097 -5.127c1.887 -1.018 3.919 -1.5 5.923 -1.5c4.448 0 8.753 2.38 11.013 6.569 c11.576 21.466 38.953 39.453 68.885 32.29c17.223 -4.12 32.173 -15.889 41.018 -32.29c2.59 -4.805 7.873 -7.215 12.974 -6.399 c0.079 -0.002 0.156 -0.012 0.236 -0.012c6.903 0 12.5 5.597 12.5 12.5C468.208 238.663 445.897 285.339 405.385 320.33zM407.296 239.416c-19.467 4.655 -39.388 2.271 -57.609 -6.895c-10.682 -5.374 -20.245 -12.893 -28.023 -21.869 c-12.126 14.283 -28.28 24.459 -46.275 28.764c-19.468 4.655 -39.388 2.271 -57.609 -6.895c-10.675 -5.37 -20.238 -12.879 -28.013 -21.85 c-12.127 14.28 -28.292 24.44 -46.285 28.745c-19.466 4.655 -39.388 2.271 -57.608 -6.895c-4.279 -2.153 -8.375 -4.654 -12.255 -7.449 C92.853 295.927 167.325 348.891 256 348.891c88.771 0 163.308 -53.079 182.443 -124.051 C429.142 231.715 418.578 236.717 407.296 239.416z"/><glyph unicode="&#xE051;" glyph-name="repair17" horiz-adv-x="512" d="M431.117 290.612c-1.666 3.766 -5.078 6.469 -9.125 7.228c-4.053 0.762 -8.21 -0.523 -11.127 -3.429l-46.148 -45.966 c-6.986 -6.987 -16.279 -10.835 -26.162 -10.836c-9.881 0 -19.172 3.848 -26.16 10.837c-6.988 6.988 -10.837 16.278 -10.838 26.161 c0 9.883 3.85 19.173 10.823 26.148l46.107 45.974c2.921 2.912 4.218 7.079 3.464 11.135s-3.46 7.479 -7.232 9.147 c-12.121 5.362 -25.594 8.197 -38.964 8.198c-24.839 -0.001 -47.881 -9.362 -64.88 -26.361l-15.197 -15.197 c-26.348 -26.348 -34.146 -65.179 -20.72 -99.207L90.02 109.506c-11.143 -11.144 -17.28 -25.959 -17.281 -41.718s6.136 -30.574 17.279 -41.719 c11.145 -11.143 25.961 -17.279 41.719 -17.279c15.759 0.001 30.574 6.137 41.719 17.279l124.951 124.952 c10.719 -4.191 22.238 -6.379 33.797 -6.379c24.705 0 47.929 9.62 65.396 27.088l15.195 15.195 C439.416 213.547 446.778 255.215 431.117 290.612zM332.203 169.643c-10.801 0.001 -21.475 2.541 -31.001 7.481 c-5.296 2.744 -11.397 1.079 -15.518 -3.293L155.777 43.749c-6.422 -6.423 -14.96 -9.958 -24.041 -9.958s-17.619 3.536 -24.041 9.957 c-6.42 6.422 -9.957 14.959 -9.957 24.04s3.537 17.619 9.959 24.041l130.06 129.925c4.485 4.262 6.041 10.226 3.294 15.521 c-13.596 26.223 -8.598 57.795 12.305 78.698l15.197 15.196c12.277 12.278 29.041 19.04 47.201 19.04 c3.373 0 6.752 -0.243 10.096 -0.719l-31.135 -31.045c-11.71 -11.71 -18.158 -27.279 -18.158 -43.839c0.002 -16.561 6.45 -32.13 18.16 -43.839 c11.71 -11.711 27.279 -18.16 43.84 -18.159c16.561 0.002 32.13 6.45 43.82 18.141l31.216 31.093 c2.965 -20.931 -3.602 -42.364 -18.476 -57.238l-15.195 -15.196C367.176 176.663 350.229 169.643 332.203 169.643zM134.633 90.184c-5.209 0 -10.106 -2.028 -13.789 -5.712c-3.682 -3.683 -5.711 -8.579 -5.711 -13.788s2.028 -10.105 5.711 -13.789 c3.683 -3.683 8.58 -5.711 13.789 -5.711c5.209 0.001 10.105 2.028 13.789 5.712c3.684 3.683 5.711 8.58 5.711 13.788 c0 5.209 -2.028 10.106 -5.711 13.789C144.738 88.157 139.842 90.184 134.633 90.184z"/><glyph unicode="&#xE052;" glyph-name="right11" horiz-adv-x="512" d="M386.755 200.839l-80 80c-4.881 4.881 -12.797 4.881 -17.678 0c-4.882 -4.882 -4.882 -12.796 0 -17.678l58.661 -58.661H134.084 c-6.903 0 -12.5 -5.597 -12.5 -12.5s5.597 -12.5 12.5 -12.5h213.654l-58.659 -58.661c-4.882 -4.882 -4.882 -12.796 0 -17.678 c2.441 -2.44 5.64 -3.661 8.839 -3.661s6.398 1.221 8.839 3.661l79.998 80C391.637 188.043 391.637 195.957 386.755 200.839z"/><glyph unicode="&#xE053;" glyph-name="sand26" horiz-adv-x="512" d="M299.729 192c48.343 53.181 62.551 158.461 63.166 163.191c0.464 3.566 -0.63 7.16 -3.005 9.862 c-2.372 2.702 -5.794 4.251 -9.391 4.251h-189c-3.597 0 -7.019 -1.549 -9.391 -4.251c-2.375 -2.703 -3.469 -6.296 -3.005 -9.862 c0.615 -4.73 14.823 -110.01 63.166 -163.191c-48.343 -53.181 -62.551 -158.461 -63.166 -163.191c-0.464 -3.566 0.63 -7.16 3.005 -9.862 c2.372 -2.702 5.794 -4.251 9.391 -4.251h189c3.597 0 7.019 1.549 9.391 4.251c2.375 2.703 3.469 6.296 3.005 9.862 C362.28 33.539 348.072 138.819 299.729 192zM176.214 39.696c5.843 31.889 23.525 109.277 62.067 142.882 c2.723 2.374 4.285 5.81 4.285 9.422s-1.563 7.048 -4.285 9.422c-38.545 33.608 -56.227 111 -62.067 142.882h159.572 c-5.843 -31.889 -23.526 -109.277 -62.067 -142.882c-2.723 -2.374 -4.285 -5.81 -4.285 -9.422s1.563 -7.048 4.285 -9.422 c38.541 -33.605 56.225 -110.994 62.067 -142.882H176.214zM256 165.961c-16.228 0 -29.653 -16.388 -42.253 -51.573c-7.929 -22.141 -12.743 -43.903 -12.944 -44.819 c-0.813 -3.698 0.096 -7.565 2.468 -10.516c2.372 -2.95 5.955 -4.666 9.741 -4.666l85.977 0.002c3.787 0 7.368 1.716 9.741 4.667 c2.372 2.95 3.28 6.817 2.468 10.515c-0.201 0.916 -5.016 22.678 -12.944 44.818C285.653 149.574 272.227 165.961 256 165.961zM282.973 79.39l-53.947 -0.001c1.816 6.691 4.229 14.931 7.113 23.312c10.205 29.641 17.768 36.568 19.861 37.999 c2.09 -1.428 9.623 -8.328 19.793 -37.803C278.703 94.464 281.139 86.143 282.973 79.39z"/><glyph unicode="&#xE054;" glyph-name="screwdriver26" horiz-adv-x="512" d="M473.646 286.049c-1.666 3.766 -5.078 6.469 -9.125 7.229c-4.053 0.762 -8.21 -0.523 -11.127 -3.43l-46.148 -45.965 c-6.986 -6.988 -16.279 -10.836 -26.162 -10.836c-9.881 0 -19.172 3.848 -26.16 10.836s-10.837 16.279 -10.838 26.162 c0 9.883 3.85 19.172 10.823 26.148l46.107 45.973c2.921 2.912 4.218 7.08 3.464 11.135c-0.754 4.057 -3.46 7.479 -7.232 9.148 c-12.121 5.361 -25.594 8.197 -38.964 8.197c-24.839 0 -47.881 -9.361 -64.88 -26.361l-15.197 -15.197 c-26.348 -26.348 -34.146 -65.178 -20.72 -99.207l-15.468 -15.468L225.91 230.52l6.475 6.474c4.882 4.882 4.882 12.796 0 17.678 l-62.931 62.931c4.058 16.895 -0.817 34.763 -13.438 47.377c-9.538 9.539 -22.22 14.793 -35.709 14.793 c-13.488 0 -26.17 -5.252 -35.71 -14.79l-39.596 -39.599c-9.539 -9.537 -14.793 -22.219 -14.793 -35.708S35.462 263.504 45 253.964 c9.532 -9.532 22.209 -14.782 35.693 -14.783h0.002c3.97 0 7.874 0.455 11.677 1.356l62.938 -62.94 c2.344 -2.344 5.523 -3.661 8.839 -3.661s6.495 1.317 8.839 3.661l6.471 6.472l16.108 -16.107l-63.019 -63.018 c-11.143 -11.143 -17.28 -25.959 -17.281 -41.717c-0.001 -15.76 6.136 -30.574 17.279 -41.719c11.145 -11.143 25.961 -17.279 41.719 -17.279 c15.759 0 30.574 6.137 41.719 17.279l63.028 63.028l62.729 -62.748c1.393 -1.393 3.095 -2.437 4.968 -3.047l42.669 -13.898 c1.271 -0.413 2.576 -0.614 3.87 -0.614c3.265 0 6.458 1.279 8.841 3.661c3.326 3.325 4.502 8.237 3.047 12.71l-13.896 42.672 c-0.611 1.872 -1.654 3.575 -3.047 4.968l-62.729 62.749l15.471 15.471c10.719 -4.191 22.238 -6.379 33.797 -6.379 c24.705 0 47.929 9.621 65.396 27.088l15.195 15.195C481.945 208.984 489.308 250.652 473.646 286.049zM164.149 204.113 l-59.519 59.521c-2.394 2.394 -5.591 3.661 -8.842 3.661c-1.671 0 -3.356 -0.335 -4.954 -1.024c-3.209 -1.387 -6.62 -2.09 -10.14 -2.09 c-6.809 0.001 -13.207 2.65 -18.018 7.46c-4.816 4.817 -7.469 11.222 -7.469 18.033s2.652 13.214 7.469 18.03l39.597 39.599 c4.817 4.816 11.222 7.469 18.033 7.469c6.811 0 13.214 -2.652 18.032 -7.472c7.438 -7.435 9.547 -18.485 5.371 -28.152 c-2.031 -4.704 -0.986 -10.172 2.637 -13.795l59.521 -59.521L164.149 204.113zM197.138 201.746l11.096 11.096l16.107 -16.107 l-11.096 -11.096L197.138 201.746zM368.396 52.681l5.359 -16.456l-16.455 5.359l-60.609 60.631l11.096 11.096L368.396 52.681zM437.646 200.041l-15.195 -15.195c-12.746 -12.746 -29.692 -19.766 -47.719 -19.766c-10.801 0.002 -21.475 2.541 -31.001 7.482 c-5.296 2.744 -11.397 1.078 -15.518 -3.293L198.307 39.186c-6.422 -6.422 -14.96 -9.957 -24.041 -9.957s-17.619 3.535 -24.041 9.957 c-6.42 6.422 -9.957 14.959 -9.957 24.039c0 9.082 3.537 17.619 9.959 24.041l130.06 129.926c4.485 4.262 6.041 10.225 3.294 15.521 c-13.596 26.223 -8.598 57.795 12.305 78.697l15.197 15.197c12.277 12.277 29.041 19.039 47.201 19.039 c3.373 0 6.752 -0.242 10.096 -0.719l-31.135 -31.045c-11.71 -11.709 -18.158 -27.279 -18.158 -43.838 c0.002 -16.561 6.45 -32.131 18.16 -43.84c11.71 -11.711 27.279 -18.16 43.84 -18.158s32.13 6.449 43.82 18.141l31.216 31.092 C459.087 236.35 452.521 214.916 437.646 200.041zM177.162 85.621c-5.209 0 -10.106 -2.027 -13.789 -5.711c-3.682 -3.684 -5.711 -8.58 -5.711 -13.789s2.028 -10.105 5.711 -13.789 c3.683 -3.682 8.58 -5.711 13.789 -5.711c5.209 0.002 10.105 2.029 13.789 5.713c3.684 3.682 5.711 8.58 5.711 13.787 c0 5.209 -2.028 10.107 -5.711 13.789C187.268 83.594 182.371 85.621 177.162 85.621z"/><glyph unicode="&#xE055;" glyph-name="setting5" horiz-adv-x="512" d="M408.918 167.664c1.271 8.036 1.913 16.191 1.913 24.336s-0.642 16.301 -1.913 24.337 c7.503 6.647 12.858 15.384 15.386 25.289c3.278 12.85 1.431 26.251 -5.2 37.738l-5.893 10.206 c-8.997 15.582 -25.774 25.262 -43.783 25.262c-5.397 0 -10.775 -0.881 -15.892 -2.581c-12.739 10.362 -26.866 18.529 -42.158 24.371 c-2.008 9.815 -6.896 18.814 -14.207 25.95c-9.488 9.261 -22.017 14.362 -35.279 14.362h-11.784c-13.262 0 -25.791 -5.101 -35.279 -14.362 c-7.311 -7.136 -12.2 -16.135 -14.208 -25.949c-15.292 -5.843 -29.419 -14.01 -42.158 -24.372c-5.118 1.7 -10.495 2.581 -15.893 2.581 c-18.009 0 -34.786 -9.68 -43.783 -25.262l-5.891 -10.205c-6.632 -11.486 -8.479 -24.888 -5.201 -37.738 c2.527 -9.905 7.882 -18.643 15.385 -25.29c-1.271 -8.036 -1.913 -16.191 -1.913 -24.336s0.642 -16.3 1.913 -24.336 c-7.503 -6.647 -12.858 -15.384 -15.386 -25.29c-3.278 -12.85 -1.431 -26.251 5.2 -37.738l5.893 -10.205 c8.996 -15.582 25.773 -25.262 43.783 -25.262c5.397 0 10.774 0.88 15.892 2.581c12.739 -10.362 26.866 -18.529 42.158 -24.372 c2.008 -9.814 6.896 -18.813 14.207 -25.949c9.488 -9.261 22.017 -14.362 35.278 -14.362h0l11.785 0c13.262 0 25.791 5.101 35.279 14.362 c7.311 7.136 12.199 16.134 14.207 25.949c15.292 5.843 29.419 14.01 42.158 24.372c5.117 -1.7 10.495 -2.581 15.892 -2.581 c0.001 0 0 0 0.001 0c18.008 0 34.785 9.68 43.782 25.262l5.891 10.205c6.632 11.486 8.479 24.889 5.201 37.738 C421.776 152.28 416.421 161.017 408.918 167.664zM382.992 219.097c1.883 -8.874 2.838 -17.991 2.838 -27.097 c0 -9.105 -0.955 -18.222 -2.838 -27.096c-1.099 -5.179 1.183 -10.488 5.697 -13.253c11.884 -7.282 15.733 -22.442 8.763 -34.515 l-5.891 -10.205c-4.545 -7.872 -13.025 -12.761 -22.131 -12.761c-4.221 0 -8.424 1.073 -12.156 3.103c-4.659 2.534 -10.408 1.853 -14.345 -1.7 c-13.674 -12.336 -29.448 -21.454 -46.883 -27.102c-5.041 -1.632 -8.505 -6.266 -8.644 -11.563c-0.367 -13.93 -11.571 -24.841 -25.508 -24.841 l-11.785 0c-13.937 0 -25.141 10.912 -25.508 24.841c-0.14 5.297 -3.603 9.93 -8.644 11.563c-17.436 5.647 -33.209 14.766 -46.884 27.102 c-2.352 2.121 -5.349 3.219 -8.375 3.219c-2.04 0 -4.093 -0.499 -5.969 -1.52c-3.785 -2.059 -7.875 -3.103 -12.155 -3.103 c-9.107 0 -17.587 4.89 -22.132 12.763l-5.893 10.205c-6.969 12.072 -3.12 27.232 8.764 34.514c4.514 2.766 6.796 8.075 5.697 13.253 c-1.883 8.874 -2.838 17.991 -2.838 27.096s0.955 18.222 2.838 27.096c1.099 5.178 -1.183 10.487 -5.696 13.253 c-11.884 7.282 -15.733 22.442 -8.763 34.515l5.891 10.205c4.545 7.872 13.025 12.762 22.132 12.762c4.22 0 8.424 -1.073 12.156 -3.103 c4.658 -2.534 10.408 -1.853 14.345 1.699c13.675 12.336 29.449 21.454 46.884 27.102c5.041 1.632 8.504 6.266 8.644 11.563 c0.367 13.93 11.572 24.841 25.509 24.841h11.784c13.937 0 25.141 -10.912 25.508 -24.841c0.139 -5.296 3.603 -9.93 8.644 -11.563 c17.436 -5.647 33.209 -14.766 46.884 -27.102c3.938 -3.551 9.688 -4.232 14.345 -1.699c3.785 2.059 7.874 3.103 12.155 3.103 c9.106 0 17.587 -4.891 22.132 -12.763l5.893 -10.205c6.969 -12.072 3.12 -27.232 -8.764 -34.514 C384.175 229.584 381.893 224.275 382.992 219.097zM256 301.995c-60.651 0 -109.995 -49.344 -109.995 -109.995S195.349 82.005 256 82.005S365.995 131.349 365.995 192 S316.651 301.995 256 301.995zM256 107.005c-46.866 0 -84.995 38.129 -84.995 84.995s38.129 84.995 84.995 84.995 s84.995 -38.129 84.995 -84.995S302.866 107.005 256 107.005z"/><glyph unicode="&#xE056;" glyph-name="sheet3" horiz-adv-x="512" d="M449.839 260.537l-29.509 29.51c-0.004 0.004 -0.006 0.008 -0.01 0.011s-0.007 0.006 -0.01 0.009L390.8 319.578 c-2.343 2.344 -5.523 3.661 -8.839 3.661s-6.495 -1.317 -8.839 -3.661l-14.59 -14.59V379.335c0 6.903 -5.597 12.5 -12.5 12.5H71 c-6.903 0 -12.5 -5.597 -12.5 -12.5v-374.67c0 -6.903 5.597 -12.5 12.5 -12.5h275.032c6.903 0 12.5 5.597 12.5 12.5v146.89l91.307 91.305 C454.721 247.741 454.721 255.655 449.839 260.537zM333.532 17.165H83.5V366.835h250.032v-86.847L230.238 176.696 c-1.726 -1.727 -2.908 -3.921 -3.402 -6.312l-15.359 -74.401c-0.851 -4.12 0.429 -8.392 3.403 -11.366c2.368 -2.368 5.558 -3.661 8.839 -3.661 c0.841 0 1.688 0.085 2.527 0.258l74.397 15.362c2.392 0.494 4.585 1.677 6.312 3.403l26.577 26.576V17.165zM246.633 142.625 l26.252 -26.253l-33.082 -6.831L246.633 142.625zM298.116 126.496l-41.36 41.361l125.205 125.204l11.842 -11.843l-76.361 -76.362 c-4.882 -4.882 -4.882 -12.796 0 -17.678c2.44 -2.44 5.64 -3.661 8.839 -3.661s6.398 1.221 8.839 3.661l76.361 76.361l11.842 -11.842 L298.116 126.496z"/></font>
</defs>
</svg>
